<?xml version="1.0" encoding="UTF-8" standalone="no"?>
<svg
   xmlns:dc="http://purl.org/dc/elements/1.1/"
   xmlns:cc="http://creativecommons.org/ns#"
   xmlns:rdf="http://www.w3.org/1999/02/22-rdf-syntax-ns#"
   xmlns:svg="http://www.w3.org/2000/svg"
   xmlns="http://www.w3.org/2000/svg"
   xmlns:sodipodi="http://sodipodi.sourceforge.net/DTD/sodipodi-0.dtd"
   xmlns:inkscape="http://www.inkscape.org/namespaces/inkscape"
   version="1.1"
   viewBox="0 0 960 273.65854"
   stroke-miterlimit="10"
   id="svg39"
   sodipodi:docname="time.svg"
   width="960"
   height="273.65854"
   style="fill:none;stroke:none;stroke-linecap:square;stroke-miterlimit:10"
   inkscape:version="0.92.2 (unknown)">
  <metadata
     id="metadata45">
    <rdf:RDF>
      <cc:Work
         rdf:about="">
        <dc:format>image/svg+xml</dc:format>
        <dc:type
           rdf:resource="http://purl.org/dc/dcmitype/StillImage" />
        <dc:title></dc:title>
      </cc:Work>
    </rdf:RDF>
  </metadata>
  <defs
     id="defs43" />
  <sodipodi:namedview
     pagecolor="#ffffff"
     bordercolor="#666666"
     borderopacity="1"
     objecttolerance="10"
     gridtolerance="10"
     guidetolerance="10"
     inkscape:pageopacity="0"
     inkscape:pageshadow="2"
     inkscape:window-width="1920"
     inkscape:window-height="1053"
     id="namedview41"
     showgrid="false"
     inkscape:zoom="1.3666667"
     inkscape:cx="224.21388"
     inkscape:cy="62.687716"
     inkscape:window-x="0"
     inkscape:window-y="0"
     inkscape:window-maximized="1"
     inkscape:current-layer="svg39"
     units="px"
     fit-margin-top="0"
     fit-margin-left="0"
     fit-margin-right="0"
     fit-margin-bottom="0" />
  <clipPath
     id="g2633789ab8_0_361.0">
    <path
       d="M 0,0 H 960 V 540 H 0 Z"
       id="path2"
       inkscape:connector-curvature="0"
       style="clip-rule:nonzero" />
  </clipPath>
  <path
     style="fill:#4ecdc4;fill-rule:evenodd;stroke-width:0.71188134"
     inkscape:connector-curvature="0"
     id="path5"
     d="M 0,0 H 960 V 273.65854 H 0 Z" />
  <path
     style="fill:#000000;fill-opacity:0;fill-rule:evenodd"
     inkscape:connector-curvature="0"
     id="path13"
     d="M 251.7376,95.63242 H 453.4384 V 252.35683 H 251.7376 Z" />
  <path
     style="fill:#000000;fill-opacity:0;fill-rule:evenodd"
     inkscape:connector-curvature="0"
     id="path25"
     d="M 520,95.63242 H 797.2914 V 252.35683 H 520 Z" />
  <g
     id="g891"
     transform="translate(0,-191.84705)">
    <path
       d="m 270.50314,263.63254 q 3.35937,0.1875 5.34375,1.76562 1.98437,1.5625 1.98437,4.21875 0,2.07813 -1.07812,3.6875 -1.07813,1.59375 -3.04688,2.48438 -1.95312,0.89062 -4.57812,0.89062 -2.125,0 -4.25,-0.64062 -2.125,-0.64063 -3.65625,-1.6875 l 1.3125,-2.5 q 1.34375,1.0625 3,1.64062 1.67187,0.5625 3.39062,0.5625 2.75,0 4.3125,-1.17187 1.57813,-1.1875 1.57813,-3.17188 0,-1.98437 -1.57813,-3.01562 -1.5625,-1.04688 -4.40625,-1.04688 h -3.0625 v -1.95312 l 6.875,-6.78125 h -10.34375 l -0.0312,-2.79689 h 14.40625 v 1.95314 l -7.51562,7.46875 z m 12.28253,-0.5 q 0.73438,0 1.23438,0.51562 0.5,0.5 0.5,1.3125 0,0.79688 -0.5,1.32813 -0.5,0.51562 -1.23438,0.51562 -0.73437,0 -1.25,-0.51562 -0.51562,-0.53125 -0.51562,-1.32813 0,-0.8125 0.51562,-1.3125 0.51563,-0.51562 1.25,-0.51562 z m 0,10 q 0.73438,0 1.23438,0.51562 0.5,0.5 0.5,1.3125 0,0.79688 -0.5,1.32813 -0.5,0.51562 -1.23438,0.51562 -0.73437,0 -1.25,-0.51562 -0.51562,-0.53125 -0.51562,-1.32813 0,-0.8125 0.51562,-1.3125 0.51563,-0.51562 1.25,-0.51562 z m 20.70215,0.60937 v 2.78125 h -16.1875 v -2.375 l 8.67187,-8.98437 q 1.40625,-1.40625 2.23438,-2.79688 0.82812,-1.39062 0.82812,-2.42187 0,-1.5 -1.17187,-2.35938 -1.15625,-0.875 -3.20313,-0.875 -1.5625,0 -3.26562,0.71875 -1.70313,0.71875 -3.07813,2 l -1.3125,-2.32812 q 1.82813,-1.46877 3.89063,-2.28127 2.0625,-0.82812 4.14062,-0.82812 3.26563,0 5.23438,1.51562 1.96875,1.50002 1.96875,4.03127 0,2.96875 -4.15625,7.28125 l -6.75,6.92187 z m 12.66791,-19.75001 q 4.51562,0 6.9375,2.93752 2.4375,2.92187 2.4375,8.39062 0,5.46875 -2.4375,8.42188 -2.42188,2.9375 -6.9375,2.9375 -4.53125,0 -6.95313,-2.9375 -2.42187,-2.95313 -2.42187,-8.42188 0,-5.46875 2.42187,-8.39062 2.42188,-2.93752 6.95313,-2.93752 z m 0,2.43752 q -6.20313,0 -6.20313,8.89062 0,4.42188 1.5625,6.67188 1.57813,2.23437 4.64063,2.23437 3.07812,0 4.64062,-2.23437 1.57813,-2.25 1.57813,-6.67188 0,-8.89062 -6.21875,-8.89062 z m 19.55792,9.34375 h 22.59375 v 2.10937 h -22.59375 z m 48.9292,2.23437 v 2.75 h -3.45313 v 5.76563 h -2.89062 v -5.76563 h -11.09375 v -2.35937 l 8,-14.28127 h 3 l -7.67188,13.89064 h 7.76563 v -5.71875 h 2.89062 v 5.71875 z m 4.28702,-4.875 q 0.73437,0 1.23437,0.51563 0.5,0.5 0.5,1.3125 0,0.79687 -0.5,1.32812 -0.5,0.51563 -1.23437,0.51563 -0.73438,0 -1.25,-0.51563 -0.51563,-0.53125 -0.51563,-1.32812 0,-0.8125 0.51563,-1.3125 0.51562,-0.51563 1.25,-0.51563 z m 0,10 q 0.73437,0 1.23437,0.51563 0.5,0.5 0.5,1.3125 0,0.79687 -0.5,1.32812 -0.5,0.51563 -1.23437,0.51563 -0.73438,0 -1.25,-0.51563 -0.51563,-0.53125 -0.51563,-1.32812 0,-0.8125 0.51563,-1.3125 0.51562,-0.51563 1.25,-0.51563 z m 14.87402,-19.14064 q 4.51563,0 6.9375,2.93752 2.4375,2.92187 2.4375,8.39062 0,5.46875 -2.4375,8.42188 -2.42187,2.9375 -6.9375,2.9375 -4.53125,0 -6.95312,-2.9375 -2.42188,-2.95313 -2.42188,-8.42188 0,-5.46875 2.42188,-8.39062 2.42187,-2.93752 6.95312,-2.93752 z m 0,2.43752 q -6.20312,0 -6.20312,8.89062 0,4.42188 1.5625,6.67188 1.57812,2.23437 4.64062,2.23437 3.07813,0 4.64063,-2.23437 1.57812,-2.25 1.57812,-6.67188 0,-8.89062 -6.21875,-8.89062 z m 22.75205,-2.43752 q 4.51562,0 6.9375,2.93752 2.4375,2.92187 2.4375,8.39062 0,5.46875 -2.4375,8.42188 -2.42188,2.9375 -6.9375,2.9375 -4.53125,0 -6.95313,-2.9375 -2.42187,-2.95313 -2.42187,-8.42188 0,-5.46875 2.42187,-8.39062 2.42188,-2.93752 6.95313,-2.93752 z m 0,2.43752 q -6.20313,0 -6.20313,8.89062 0,4.42188 1.5625,6.67188 1.57813,2.23437 4.64063,2.23437 3.07812,0 4.64062,-2.23437 1.57813,-2.25 1.57813,-6.67188 0,-8.89062 -6.21875,-8.89062 z"
       id="path15"
       inkscape:connector-curvature="0"
       style="fill:#c7f464;fill-rule:nonzero" />
    <path
       d="m 278.69064,314.00754 v 2.75 h -3.45313 v 5.76562 h -2.89062 v -5.76562 h -11.09375 v -2.35938 l 8,-14.28125 h 3 l -7.67188,13.89063 h 7.76563 v -5.71875 h 2.89062 v 5.71875 z m 4.28705,-4.875 q 0.73437,0 1.23437,0.51562 0.5,0.5 0.5,1.3125 0,0.79688 -0.5,1.32813 -0.5,0.51562 -1.23437,0.51562 -0.73438,0 -1.25,-0.51562 -0.51563,-0.53125 -0.51563,-1.32813 0,-0.8125 0.51563,-1.3125 0.51562,-0.51562 1.25,-0.51562 z m 0,10 q 0.73437,0 1.23437,0.51562 0.5,0.5 0.5,1.3125 0,0.79688 -0.5,1.32813 -0.5,0.51562 -1.23437,0.51562 -0.73438,0 -1.25,-0.51562 -0.51563,-0.53125 -0.51563,-1.32813 0,-0.8125 0.51563,-1.3125 0.51562,-0.51562 1.25,-0.51562 z m 14.87399,-19.14063 q 4.51563,0 6.9375,2.9375 2.4375,2.92188 2.4375,8.39063 0,5.46875 -2.4375,8.42187 -2.42187,2.9375 -6.9375,2.9375 -4.53125,0 -6.95312,-2.9375 -2.42188,-2.95312 -2.42188,-8.42187 0,-5.46875 2.42188,-8.39063 2.42187,-2.9375 6.95312,-2.9375 z m 0,2.4375 q -6.20312,0 -6.20312,8.89063 0,4.42187 1.5625,6.67187 1.57812,2.23438 4.64062,2.23438 3.07813,0 4.64063,-2.23438 1.57812,-2.25 1.57812,-6.67187 0,-8.89063 -6.21875,-8.89063 z m 22.75205,-2.4375 q 4.51562,0 6.9375,2.9375 2.4375,2.92188 2.4375,8.39063 0,5.46875 -2.4375,8.42187 -2.42188,2.9375 -6.9375,2.9375 -4.53125,0 -6.95313,-2.9375 -2.42187,-2.95312 -2.42187,-8.42187 0,-5.46875 2.42187,-8.39063 2.42188,-2.9375 6.95313,-2.9375 z m 0,2.4375 q -6.20313,0 -6.20313,8.89063 0,4.42187 1.5625,6.67187 1.57813,2.23438 4.64063,2.23438 3.07812,0 4.64062,-2.23438 1.57813,-2.25 1.57813,-6.67187 0,-8.89063 -6.21875,-8.89063 z m 19.55795,9.34375 h 22.59375 v 2.10938 h -22.59375 z m 48.92917,2.23438 v 2.75 h -3.45313 v 5.76562 h -2.89062 v -5.76562 h -11.09375 v -2.35938 l 8,-14.28125 h 3 l -7.67188,13.89063 h 7.76563 v -5.71875 h 2.89062 v 5.71875 z m 4.28705,-4.875 q 0.73437,0 1.23437,0.51562 0.5,0.5 0.5,1.3125 0,0.79688 -0.5,1.32813 -0.5,0.51562 -1.23437,0.51562 -0.73438,0 -1.25,-0.51562 -0.51563,-0.53125 -0.51563,-1.32813 0,-0.8125 0.51563,-1.3125 0.51562,-0.51562 1.25,-0.51562 z m 0,10 q 0.73437,0 1.23437,0.51562 0.5,0.5 0.5,1.3125 0,0.79688 -0.5,1.32813 -0.5,0.51562 -1.23437,0.51562 -0.73438,0 -1.25,-0.51562 -0.51563,-0.53125 -0.51563,-1.32813 0,-0.8125 0.51563,-1.3125 0.51562,-0.51562 1.25,-0.51562 z m 20.70212,0.60937 v 2.78125 h -16.1875 v -2.375 l 8.67187,-8.98437 q 1.40625,-1.40625 2.23438,-2.79688 0.82812,-1.39062 0.82812,-2.42187 0,-1.5 -1.17187,-2.35938 -1.15625,-0.875 -3.20313,-0.875 -1.5625,0 -3.26562,0.71875 -1.70313,0.71875 -3.07813,2 l -1.3125,-2.32812 q 1.82813,-1.46875 3.89063,-2.28125 2.0625,-0.82813 4.14062,-0.82813 3.26563,0 5.23438,1.51563 1.96875,1.5 1.96875,4.03125 0,2.96875 -4.15625,7.28125 l -6.75,6.92187 z m 11.2304,-11.26562 q 2.46875,0 4.34375,0.875 1.875,0.85937 2.875,2.39062 1.01563,1.53125 1.01563,3.45313 0,2.23437 -1.04688,3.9375 -1.04687,1.6875 -2.96875,2.625 -1.90625,0.92187 -4.4375,0.92187 -1.98437,0 -4.1875,-0.6875 -2.1875,-0.6875 -3.90625,-1.84375 l 1.25,-2.45312 q 1.4375,1.07812 3.15625,1.65625 1.73438,0.57812 3.39063,0.57812 2.53125,0 4,-1.21875 1.48437,-1.21875 1.48437,-3.29687 0,-1.95313 -1.48437,-3.04688 -1.46875,-1.10937 -4.1875,-1.10937 -0.98438,0 -2.875,0.125 -1.89063,0.125 -3.04688,0.32812 v -11.59375 h 13.92188 v 2.79688 h -11.03125 v 5.6875 q 1.5,-0.125 3.73437,-0.125 z"
       id="path17"
       inkscape:connector-curvature="0"
       style="fill:#c7f464;fill-rule:nonzero" />
    <path
       d="m 278.69064,360.00754 v 2.75 h -3.45313 v 5.76562 h -2.89062 v -5.76562 h -11.09375 v -2.35938 l 8,-14.28125 h 3 l -7.67188,13.89063 h 7.76563 v -5.71875 h 2.89062 v 5.71875 z m 4.28705,-4.875 q 0.73437,0 1.23437,0.51562 0.5,0.5 0.5,1.3125 0,0.79688 -0.5,1.32813 -0.5,0.51562 -1.23437,0.51562 -0.73438,0 -1.25,-0.51562 -0.51563,-0.53125 -0.51563,-1.32813 0,-0.8125 0.51563,-1.3125 0.51562,-0.51562 1.25,-0.51562 z m 0,10 q 0.73437,0 1.23437,0.51562 0.5,0.5 0.5,1.3125 0,0.79688 -0.5,1.32813 -0.5,0.51562 -1.23437,0.51562 -0.73438,0 -1.25,-0.51562 -0.51563,-0.53125 -0.51563,-1.32813 0,-0.8125 0.51563,-1.3125 0.51562,-0.51562 1.25,-0.51562 z m 20.70212,0.60937 v 2.78125 h -16.1875 v -2.375 l 8.67187,-8.98437 q 1.40625,-1.40625 2.23438,-2.79688 0.82812,-1.39062 0.82812,-2.42187 0,-1.5 -1.17187,-2.35938 -1.15625,-0.875 -3.20313,-0.875 -1.5625,0 -3.26562,0.71875 -1.70313,0.71875 -3.07813,2 l -1.3125,-2.32812 q 1.82813,-1.46875 3.89063,-2.28125 2.0625,-0.82813 4.14062,-0.82813 3.26563,0 5.23438,1.51563 1.96875,1.5 1.96875,4.03125 0,2.96875 -4.15625,7.28125 l -6.75,6.92187 z m 11.2304,-11.26562 q 2.46875,0 4.34375,0.875 1.875,0.85937 2.875,2.39062 1.01563,1.53125 1.01563,3.45313 0,2.23437 -1.04688,3.9375 -1.04687,1.6875 -2.96875,2.625 -1.90625,0.92187 -4.4375,0.92187 -1.98437,0 -4.1875,-0.6875 -2.1875,-0.6875 -3.90625,-1.84375 l 1.25,-2.45312 q 1.4375,1.07812 3.15625,1.65625 1.73438,0.57812 3.39063,0.57812 2.53125,0 4,-1.21875 1.48437,-1.21875 1.48437,-3.29687 0,-1.95313 -1.48437,-3.04688 -1.46875,-1.10937 -4.1875,-1.10937 -0.98438,0 -2.875,0.125 -1.89063,0.125 -3.04688,0.32812 v -11.59375 h 13.92188 v 2.79688 h -11.03125 v 5.6875 q 1.5,-0.125 3.73437,-0.125 z m 26.30747,3.29687 h 22.59375 v 2.10938 h -22.59375 z m 48.92917,2.23438 v 2.75 h -3.45313 v 5.76562 h -2.89062 v -5.76562 h -11.09375 v -2.35938 l 8,-14.28125 h 3 l -7.67188,13.89063 h 7.76563 v -5.71875 h 2.89062 v 5.71875 z m 4.28705,-4.875 q 0.73437,0 1.23437,0.51562 0.5,0.5 0.5,1.3125 0,0.79688 -0.5,1.32813 -0.5,0.51562 -1.23437,0.51562 -0.73438,0 -1.25,-0.51562 -0.51563,-0.53125 -0.51563,-1.32813 0,-0.8125 0.51563,-1.3125 0.51562,-0.51562 1.25,-0.51562 z m 0,10 q 0.73437,0 1.23437,0.51562 0.5,0.5 0.5,1.3125 0,0.79688 -0.5,1.32813 -0.5,0.51562 -1.23437,0.51562 -0.73438,0 -1.25,-0.51562 -0.51563,-0.53125 -0.51563,-1.32813 0,-0.8125 0.51563,-1.3125 0.51562,-0.51562 1.25,-0.51562 z m 13.06149,-9.5 q 3.35938,0.1875 5.34375,1.76562 1.98438,1.5625 1.98438,4.21875 0,2.07813 -1.07813,3.6875 -1.07812,1.59375 -3.04687,2.48438 -1.95313,0.89062 -4.57813,0.89062 -2.125,0 -4.25,-0.64062 -2.125,-0.64063 -3.65625,-1.6875 l 1.3125,-2.5 q 1.34375,1.0625 3,1.64062 1.67188,0.5625 3.39063,0.5625 2.75,0 4.3125,-1.17187 1.57812,-1.1875 1.57812,-3.17188 0,-1.98437 -1.57812,-3.01562 -1.5625,-1.04688 -4.40625,-1.04688 h -3.0625 v -1.95312 l 6.875,-6.78125 h -10.34375 l -0.0312,-2.79688 h 14.40625 v 1.95313 l -7.51563,7.46875 z m 20.53253,-9.64063 q 4.51563,0 6.9375,2.9375 2.4375,2.92188 2.4375,8.39063 0,5.46875 -2.4375,8.42187 -2.42187,2.9375 -6.9375,2.9375 -4.53125,0 -6.95312,-2.9375 -2.42188,-2.95312 -2.42188,-8.42187 0,-5.46875 2.42188,-8.39063 2.42187,-2.9375 6.95312,-2.9375 z m 0,2.4375 q -6.20312,0 -6.20312,8.89063 0,4.42187 1.5625,6.67187 1.57812,2.23438 4.64062,2.23438 3.07813,0 4.64063,-2.23438 1.57812,-2.25 1.57812,-6.67187 0,-8.89063 -6.21875,-8.89063 z"
       id="path19"
       inkscape:connector-curvature="0"
       style="fill:#c7f464;fill-rule:nonzero" />
    <path
       d="M 480,207.23885 V 408.15223"
       id="path23"
       inkscape:connector-curvature="0"
       style="fill-rule:evenodd;stroke:#c7f464;stroke-width:3;stroke-linecap:butt;stroke-linejoin:round" />
    <path
       d="m 532.0781,252.77315 h 2.96875 v 23.75001 h -2.96875 z m 15.74499,6.71877 q 3.92188,0 5.9375,2.32812 2.01563,2.3125 2.01563,6.45313 0,0.64062 -0.0312,0.95312 h -13.375 q 0.35937,2.26563 1.90625,3.60938 1.5625,1.34375 3.82812,1.34375 1.5,0 2.79688,-0.53125 1.29687,-0.54688 2.26562,-1.54688 l 1.625,1.70313 q -1.25,1.34375 -3.01562,2.07812 -1.75,0.73438 -3.89063,0.73438 -2.5,0 -4.4375,-1.0625 -1.9375,-1.07813 -3.01562,-3.03125 -1.0625,-1.95313 -1.0625,-4.45313 0,-2.48437 1.0625,-4.42187 1.07812,-1.9375 3,-3.04688 1.92187,-1.10937 4.39062,-1.10937 z m 5.26563,7.4375 q -0.125,-2.3125 -1.53125,-3.64063 -1.40625,-1.32812 -3.70313,-1.32812 -2.25,0 -3.73437,1.34375 -1.48438,1.34375 -1.78125,3.625 z m 18.62854,-2.82813 q -2.01563,-1.95312 -4.82813,-1.95312 -1.67187,0 -2.96875,0.75 -1.28125,0.73437 -2.03125,2.07812 -0.73437,1.34375 -0.73437,3.09375 0,1.76563 0.71875,3.10938 0.71875,1.34375 1.98437,2.09375 1.26563,0.75 2.90625,0.75 1.625,0 2.9375,-0.53125 1.3125,-0.54688 2.17188,-1.57813 l 1.70312,1.73438 q -1.15625,1.4375 -2.9375,2.20312 -1.76562,0.76563 -4,0.76563 -2.46875,0 -4.39062,-1.07813 -1.92188,-1.09375 -3,-3.03125 -1.0625,-1.9375 -1.0625,-4.4375 0,-2.48437 1.0625,-4.4375 1.07812,-1.95312 3,-3.04687 1.92187,-1.09375 4.39062,-1.09375 2.14063,0 3.84375,0.65625 1.71875,0.65625 2.875,1.90625 z m 15.20282,11.29688 q -1.95313,1.25 -3.96875,1.25 -2.01563,0 -3.26563,-1.1875 -1.25,-1.20313 -1.25,-3.64063 v -9.375 h -2.39062 v -2.28125 h 2.39062 v -4.53127 h 3.01563 v 4.53127 h 5.1875 v 2.28125 h -5.1875 v 8.82813 q 0,1.40625 0.5,2.01562 0.51562,0.60938 1.54687,0.60938 1.21875,0 2.625,-0.79688 z m 18.59467,-15.79688 v 16.92188 h -3.01563 v -3.57813 q -1.65625,3.60938 -6.26562,3.67188 -2.95313,0 -4.60938,-1.73438 -1.65625,-1.75 -1.65625,-4.82812 v -10.45313 h 3 v 9.65625 q 0,2.14063 1.17188,3.34375 1.17187,1.20313 3.21875,1.20313 2.35937,-0.0312 3.75,-1.67188 1.39062,-1.65625 1.39062,-4.21875 v -8.3125 z m 8.768,3.64063 q 0.82813,-1.82813 2.35938,-2.76563 1.54687,-0.9375 3.65625,-0.98437 v 2.89062 q -2.59375,-0.0937 -4.20313,1.34375 -1.59375,1.4375 -1.8125,3.875 v 8.92188 h -2.98437 v -16.92188 h 2.98437 z m 16.03656,-3.75 q 3.92188,0 5.9375,2.32812 2.01563,2.3125 2.01563,6.45313 0,0.64062 -0.0312,0.95312 h -13.375 q 0.35937,2.26563 1.90625,3.60938 1.5625,1.34375 3.82812,1.34375 1.5,0 2.79688,-0.53125 1.29687,-0.54688 2.26562,-1.54688 l 1.625,1.70313 q -1.25,1.34375 -3.01562,2.07812 -1.75,0.73438 -3.89063,0.73438 -2.5,0 -4.4375,-1.0625 -1.9375,-1.07813 -3.01562,-3.03125 -1.0625,-1.95313 -1.0625,-4.45313 0,-2.48437 1.0625,-4.42187 1.07812,-1.9375 3,-3.04688 1.92187,-1.10937 4.39062,-1.10937 z m 5.26563,7.4375 q -0.125,-2.3125 -1.53125,-3.64063 -1.40625,-1.32812 -3.70313,-1.32812 -2.25,0 -3.73437,1.34375 -1.48438,1.34375 -1.78125,3.625 z m 8.42541,-13.48439 h 1.625 l -0.0312,3.39064 2.95313,-1.71877 0.79687,1.50002 -2.98437,1.67187 2.98437,1.65625 -0.79687,1.5 -2.95313,-1.71875 0.0312,3.39063 h -1.625 l 0.0312,-3.42188 -2.95312,1.71875 -0.82813,-1.46875 2.98438,-1.65625 -2.98438,-1.67187 0.82813,-1.53127 2.95312,1.75002 z"
       id="path27"
       inkscape:connector-curvature="0"
       style="fill:#c7f464;fill-rule:nonzero" />
    <path
       d="m 541.3125,305.4919 q 2.375,0 4.23437,1.09375 1.85938,1.09375 2.875,3.04687 1.03125,1.95313 1.03125,4.46875 0,2.5 -1.01562,4.4375 -1,1.9375 -2.84375,3.01563 -1.84375,1.0625 -4.20313,1.0625 -2.15625,0 -3.79687,-0.89063 -1.625,-0.90625 -2.54688,-2.5625 v 9.5625 h -2.96875 v -23.125 h 2.96875 v 3.35938 q 0.92188,-1.67188 2.53125,-2.5625 1.625,-0.90625 3.73438,-0.90625 z m -0.5625,14.53125 q 1.625,0 2.92187,-0.76563 1.29688,-0.76562 2.01563,-2.14062 0.71875,-1.375 0.71875,-3.10938 0,-1.6875 -0.73438,-3.0625 -0.73437,-1.375 -2.01562,-2.14062 -1.28125,-0.78125 -2.90625,-0.78125 -1.64063,0 -2.9375,0.78125 -1.29688,0.76562 -2.03125,2.14062 -0.73438,1.375 -0.73438,3.0625 0,1.76563 0.73438,3.125 0.73437,1.35938 2.03125,2.125 1.29687,0.76563 2.9375,0.76563 z m 15.83667,-10.78125 q 0.82813,-1.82813 2.35938,-2.76563 1.54687,-0.9375 3.65625,-0.98437 v 2.89062 q -2.59375,-0.0937 -4.20313,1.34375 -1.59375,1.4375 -1.8125,3.875 v 8.92188 h -2.98437 v -16.92188 h 2.98437 z m 16.2865,-3.75 q 2.53125,0 4.5,1.09375 1.96875,1.09375 3.0625,3.03125 1.10937,1.9375 1.10937,4.42187 0,2.5 -1.10937,4.45313 -1.09375,1.95312 -3.0625,3.04687 -1.96875,1.07813 -4.5,1.07813 -2.5625,0 -4.53125,-1.07813 -1.96875,-1.09375 -3.07813,-3.03125 -1.09375,-1.9375 -1.09375,-4.46875 0,-2.48437 1.09375,-4.42187 1.10938,-1.9375 3.07813,-3.03125 1.96875,-1.09375 4.53125,-1.09375 z m 0,2.59375 q -1.67188,0 -2.96875,0.78125 -1.28125,0.76562 -2.01563,2.125 -0.71875,1.35937 -0.71875,3.07812 0,1.76563 0.71875,3.14063 0.73438,1.375 2.01563,2.125 1.29687,0.75 2.96875,0.75 1.625,0 2.92187,-0.75 1.29688,-0.75 2.01563,-2.125 0.71875,-1.375 0.71875,-3.14063 0,-1.71875 -0.71875,-3.07812 -0.71875,-1.35938 -2.01563,-2.125 -1.29687,-0.78125 -2.92187,-0.78125 z m 8.73144,17.89062 q 0.70313,0.26563 1.54688,0.32813 1.20312,0.0312 1.84375,-0.84375 0.64062,-0.85938 0.64062,-2.51563 v -17.34375 h 3.01563 v 17.75 q 0,2.625 -1.26563,4.04688 -1.26562,1.42187 -3.5625,1.42187 -1.45312,0 -2.92187,-0.5625 z m 5.51563,-27.14062 q 0.79687,0 1.32812,0.54687 0.53125,0.54688 0.53125,1.375 0,0.84375 -0.53125,1.39063 -0.53125,0.53125 -1.32812,0.53125 -0.79688,0 -1.32813,-0.53125 -0.53125,-0.54688 -0.53125,-1.39063 0,-0.82812 0.53125,-1.375 0.53125,-0.54687 1.32813,-0.54687 z m 13.79102,6.65625 q 3.92187,0 5.9375,2.32812 2.01562,2.3125 2.01562,6.45313 0,0.64062 -0.0312,0.95312 h -13.375 q 0.35938,2.26563 1.90625,3.60938 1.5625,1.34375 3.82813,1.34375 1.5,0 2.79687,-0.53125 1.29688,-0.54688 2.26563,-1.54688 l 1.625,1.70313 q -1.25,1.34375 -3.01563,2.07812 -1.75,0.73438 -3.89062,0.73438 -2.5,0 -4.4375,-1.0625 -1.9375,-1.07813 -3.01563,-3.03125 -1.0625,-1.95313 -1.0625,-4.45313 0,-2.48437 1.0625,-4.42187 1.07813,-1.9375 3,-3.04688 1.92188,-1.10937 4.39063,-1.10937 z m 5.26562,7.4375 q -0.125,-2.3125 -1.53125,-3.64063 -1.40625,-1.32812 -3.70312,-1.32812 -2.25,0 -3.73438,1.34375 -1.48437,1.34375 -1.78125,3.625 z m 18.62854,-2.82813 q -2.01562,-1.95312 -4.82812,-1.95312 -1.67188,0 -2.96875,0.75 -1.28125,0.73437 -2.03125,2.07812 -0.73438,1.34375 -0.73438,3.09375 0,1.76563 0.71875,3.10938 0.71875,1.34375 1.98438,2.09375 1.26562,0.75 2.90625,0.75 1.625,0 2.9375,-0.53125 1.3125,-0.54688 2.17187,-1.57813 l 1.70313,1.73438 q -1.15625,1.4375 -2.9375,2.20312 -1.76563,0.76563 -4,0.76563 -2.46875,0 -4.39063,-1.07813 -1.92187,-1.09375 -3,-3.03125 -1.0625,-1.9375 -1.0625,-4.4375 0,-2.48437 1.0625,-4.4375 1.07813,-1.95312 3,-3.04687 1.92188,-1.09375 4.39063,-1.09375 2.14062,0 3.84375,0.65625 1.71875,0.65625 2.875,1.90625 z m 15.20276,11.29688 q -1.95313,1.25 -3.96875,1.25 -2.01563,0 -3.26563,-1.1875 -1.25,-1.20313 -1.25,-3.64063 v -9.375 h -2.39062 v -2.28125 h 2.39062 v -4.53125 h 3.01563 v 4.53125 h 5.1875 v 2.28125 h -5.1875 v 8.82813 q 0,1.40625 0.5,2.01562 0.51562,0.60938 1.54687,0.60938 1.21875,0 2.625,-0.79688 z"
       id="path29"
       inkscape:connector-curvature="0"
       style="fill:#c7f464;fill-rule:nonzero" />
    <path
       d="m 541.3125,351.4919 q 2.375,0 4.23437,1.09375 1.85938,1.09375 2.875,3.04687 1.03125,1.95313 1.03125,4.46875 0,2.5 -1.01562,4.4375 -1,1.9375 -2.84375,3.01563 -1.84375,1.0625 -4.20313,1.0625 -2.15625,0 -3.79687,-0.89063 -1.625,-0.90625 -2.54688,-2.5625 v 9.5625 h -2.96875 v -23.125 h 2.96875 v 3.35938 q 0.92188,-1.67188 2.53125,-2.5625 1.625,-0.90625 3.73438,-0.90625 z m -0.5625,14.53125 q 1.625,0 2.92187,-0.76563 1.29688,-0.76562 2.01563,-2.14062 0.71875,-1.375 0.71875,-3.10938 0,-1.6875 -0.73438,-3.0625 -0.73437,-1.375 -2.01562,-2.14062 -1.28125,-0.78125 -2.90625,-0.78125 -1.64063,0 -2.9375,0.78125 -1.29688,0.76562 -2.03125,2.14062 -0.73438,1.375 -0.73438,3.0625 0,1.76563 0.73438,3.125 0.73437,1.35938 2.03125,2.125 1.29687,0.76563 2.9375,0.76563 z m 15.83667,-10.78125 q 0.82813,-1.82813 2.35938,-2.76563 1.54687,-0.9375 3.65625,-0.98437 v 2.89062 q -2.59375,-0.0937 -4.20313,1.34375 -1.59375,1.4375 -1.8125,3.875 v 8.92188 h -2.98437 v -16.92188 h 2.98437 z m 16.0365,-3.75 q 3.92187,0 5.9375,2.32812 2.01562,2.3125 2.01562,6.45313 0,0.64062 -0.0312,0.95312 h -13.375 q 0.35938,2.26563 1.90625,3.60938 1.5625,1.34375 3.82813,1.34375 1.5,0 2.79687,-0.53125 1.29688,-0.54688 2.26563,-1.54688 l 1.625,1.70313 q -1.25,1.34375 -3.01563,2.07812 -1.75,0.73438 -3.89062,0.73438 -2.5,0 -4.4375,-1.0625 -1.9375,-1.07813 -3.01563,-3.03125 -1.0625,-1.95313 -1.0625,-4.45313 0,-2.48437 1.0625,-4.42187 1.07813,-1.9375 3,-3.04688 1.92188,-1.10937 4.39063,-1.10937 z m 5.26562,7.4375 q -0.125,-2.3125 -1.53125,-3.64063 -1.40625,-1.32812 -3.70312,-1.32812 -2.25,0 -3.73438,1.34375 -1.48437,1.34375 -1.78125,3.625 z m 16.00354,-3.59375 q -1.04687,-0.64063 -2.3125,-1.01563 -1.26562,-0.39062 -2.42187,-0.39062 -1.34375,0 -2.15625,0.5 -0.8125,0.5 -0.8125,1.51562 0,1.03125 0.90625,1.5625 0.90625,0.51563 2.76562,1.0625 1.76563,0.51563 2.875,1.03125 1.125,0.5 1.90625,1.5 0.79688,0.98438 0.79688,2.625 0,2.39063 -1.8125,3.64063 -1.8125,1.25 -4.5,1.25 -1.89063,0 -3.67188,-0.60938 -1.76562,-0.60937 -2.98437,-1.71875 l 1.125,-2.1875 q 1.04687,0.96875 2.59375,1.54688 1.5625,0.57812 3.03125,0.57812 1.46875,0 2.35937,-0.54687 0.90625,-0.54688 0.90625,-1.67188 0,-1.14062 -0.95312,-1.71875 -0.9375,-0.57812 -2.85938,-1.15625 -1.6875,-0.48437 -2.76562,-0.96875 -1.0625,-0.5 -1.82813,-1.45312 -0.75,-0.96875 -0.75,-2.5 0,-2.375 1.73438,-3.5625 1.73437,-1.1875 4.3125,-1.1875 1.54687,0 3.03125,0.4375 1.48437,0.4375 2.57812,1.17187 z m 12.26697,-3.84375 q 3.92188,0 5.9375,2.32812 2.01563,2.3125 2.01563,6.45313 0,0.64062 -0.0312,0.95312 h -13.375 q 0.35937,2.26563 1.90625,3.60938 1.5625,1.34375 3.82812,1.34375 1.5,0 2.79688,-0.53125 1.29687,-0.54688 2.26562,-1.54688 l 1.625,1.70313 q -1.25,1.34375 -3.01562,2.07812 -1.75,0.73438 -3.89063,0.73438 -2.5,0 -4.4375,-1.0625 -1.9375,-1.07813 -3.01562,-3.03125 -1.0625,-1.95313 -1.0625,-4.45313 0,-2.48437 1.0625,-4.42187 1.07812,-1.9375 3,-3.04688 1.92187,-1.10937 4.39062,-1.10937 z m 5.26563,7.4375 q -0.125,-2.3125 -1.53125,-3.64063 -1.40625,-1.32812 -3.70313,-1.32812 -2.25,0 -3.73437,1.34375 -1.48438,1.34375 -1.78125,3.625 z m 16.15979,-7.4375 q 2.98437,0 4.67187,1.75 1.70313,1.75 1.70313,4.8125 v 10.46875 h -2.96875 v -9.65625 q 0,-2.15625 -1.20313,-3.34375 -1.20312,-1.20313 -3.3125,-1.20313 -2.28125,0.0312 -3.70312,1.45313 -1.42188,1.42187 -1.60938,3.6875 v 9.0625 h -2.98437 v -16.92188 h 2.98437 v 3.57813 q 1.6875,-3.60938 6.42188,-3.6875 z m 20.77551,15.90625 q -1.95312,1.25 -3.96875,1.25 -2.01562,0 -3.26562,-1.1875 -1.25,-1.20313 -1.25,-3.64063 v -9.375 h -2.39063 v -2.28125 h 2.39063 v -4.53125 h 3.01562 v 4.53125 h 5.1875 v 2.28125 h -5.1875 v 8.82813 q 0,1.40625 0.5,2.01562 0.51563,0.60938 1.54688,0.60938 1.21875,0 2.625,-0.79688 z m 13.95404,1.125 v -2.375 q -1.89062,2.5 -5.92187,2.5 -1.76563,0 -3.09375,-0.67188 -1.32813,-0.67187 -2.04688,-1.84375 -0.71875,-1.1875 -0.71875,-2.67187 0,-2.26563 1.67188,-3.59375 1.6875,-1.32813 4.70312,-1.35938 h 5.375 v -0.79687 q 0,-1.79688 -1.10937,-2.76563 -1.09375,-0.98437 -3.21875,-0.98437 -2.54688,0 -5.20313,1.82812 l -1.25,-2.04687 q 1.8125,-1.1875 3.35938,-1.71875 1.5625,-0.53125 3.70312,-0.53125 3.17188,0 4.89063,1.5625 1.73437,1.54687 1.76562,4.32812 l 0.0312,11.14063 z m -5.3125,-2.34375 q 2.07813,0 3.53125,-1 1.45313,-1.01563 1.75,-2.67188 v -1.70312 h -4.96875 q -2.01562,0 -3,0.60937 -0.96875,0.60938 -0.96875,1.92188 0,1.3125 0.98438,2.07812 1,0.76563 2.67187,0.76563 z m 22.65454,1.21875 q -1.95312,1.25 -3.96875,1.25 -2.01562,0 -3.26562,-1.1875 -1.25,-1.20313 -1.25,-3.64063 v -9.375 h -2.39063 v -2.28125 h 2.39063 v -4.53125 h 3.01562 v 4.53125 h 5.1875 v 2.28125 h -5.1875 v 8.82813 q 0,1.40625 0.5,2.01562 0.51563,0.60938 1.54688,0.60938 1.21875,0 2.625,-0.79688 z m 3.61029,-15.79688 h 2.98438 v 16.92188 h -2.98438 z m 1.48438,-6.76562 q 0.79687,0 1.32812,0.54687 0.53125,0.54688 0.53125,1.375 0,0.84375 -0.53125,1.39063 -0.53125,0.53125 -1.32812,0.53125 -0.79688,0 -1.32813,-0.53125 -0.53125,-0.54688 -0.53125,-1.39063 0,-0.82812 0.53125,-1.375 0.53125,-0.54687 1.32813,-0.54687 z m 14.3305,6.65625 q 2.53125,0 4.5,1.09375 1.96875,1.09375 3.0625,3.03125 1.10938,1.9375 1.10938,4.42187 0,2.5 -1.10938,4.45313 -1.09375,1.95312 -3.0625,3.04687 -1.96875,1.07813 -4.5,1.07813 -2.5625,0 -4.53125,-1.07813 -1.96875,-1.09375 -3.07812,-3.03125 -1.09375,-1.9375 -1.09375,-4.46875 0,-2.48437 1.09375,-4.42187 1.10937,-1.9375 3.07812,-3.03125 1.96875,-1.09375 4.53125,-1.09375 z m 0,2.59375 q -1.67187,0 -2.96875,0.78125 -1.28125,0.76562 -2.01562,2.125 -0.71875,1.35937 -0.71875,3.07812 0,1.76563 0.71875,3.14063 0.73437,1.375 2.01562,2.125 1.29688,0.75 2.96875,0.75 1.625,0 2.92188,-0.75 1.29687,-0.75 2.01562,-2.125 0.71875,-1.375 0.71875,-3.14063 0,-1.71875 -0.71875,-3.07812 -0.71875,-1.35938 -2.01562,-2.125 -1.29688,-0.78125 -2.92188,-0.78125 z m 22.23139,-2.59375 q 2.98437,0 4.67187,1.75 1.70313,1.75 1.70313,4.8125 v 10.46875 h -2.96875 v -9.65625 q 0,-2.15625 -1.20313,-3.34375 -1.20312,-1.20313 -3.3125,-1.20313 -2.28125,0.0312 -3.70312,1.45313 -1.42188,1.42187 -1.60938,3.6875 v 9.0625 h -2.98437 v -16.92188 h 2.98437 v 3.57813 q 1.6875,-3.60938 6.42188,-3.6875 z"
       id="path31"
       inkscape:connector-curvature="0"
       style="fill:#c7f464;fill-rule:nonzero" />
    <path
       d="m 239.1331,432.98875 h 0.95313 l -0.0312,1.98437 1.71875,-1.01562 0.46875,0.875 -1.73438,0.96875 1.73438,0.98437 -0.46875,0.875 -1.71875,-1.01562 0.0312,1.98437 h -0.95313 l 0.0156,-2 -1.71875,1 -0.48438,-0.84375 1.73438,-0.98437 -1.73438,-0.96875 0.48438,-0.89063 1.71875,1.03125 z m 10.80278,3.53125 q 1.375,0 2.45313,0.64062 1.09375,0.625 1.6875,1.76563 0.59375,1.14062 0.59375,2.60937 0,1.45313 -0.59375,2.59375 -0.57813,1.125 -1.65625,1.75 -1.07813,0.625 -2.45313,0.625 -1.25,0 -2.20312,-0.51562 -0.95313,-0.53125 -1.48438,-1.5 v 1.95312 h -1.73437 v -13.84375 h 1.73437 v 5.9375 q 0.53125,-0.96875 1.46875,-1.48437 0.95313,-0.53125 2.1875,-0.53125 z m -0.34375,8.46875 q 0.95313,0 1.70313,-0.4375 0.76562,-0.45313 1.1875,-1.25 0.42187,-0.8125 0.42187,-1.82813 0,-0.98437 -0.4375,-1.78125 -0.42187,-0.8125 -1.17187,-1.25 -0.75,-0.45312 -1.70313,-0.45312 -0.95312,0 -1.70312,0.45312 -0.75,0.4375 -1.1875,1.25 -0.42188,0.79688 -0.42188,1.78125 0,1.03125 0.42188,1.82813 0.4375,0.79687 1.1875,1.25 0.75,0.4375 1.70312,0.4375 z m 16.22705,-8.42188 v 9.875 h -1.75 v -2.09375 q -0.96875,2.10938 -3.65625,2.15625 -1.71875,0 -2.6875,-1.01562 -0.96875,-1.03125 -0.96875,-2.8125 v -6.10938 h 1.75 v 5.64063 q 0,1.25 0.6875,1.95312 0.6875,0.70313 1.875,0.70313 1.375,-0.0312 2.1875,-0.98438 0.8125,-0.96875 0.8125,-2.45312 v -4.85938 z m 8.68604,9.21875 q -1.14063,0.73438 -2.3125,0.73438 -1.1875,0 -1.92188,-0.70313 -0.71875,-0.70312 -0.71875,-2.125 v -5.45312 h -1.39062 v -1.32813 h 1.39062 v -2.65625 h 1.76563 v 2.65625 h 3.01562 v 1.32813 h -3.01562 v 5.14062 q 0,0.82813 0.29687,1.1875 0.29688,0.34375 0.89063,0.34375 0.70312,0 1.53125,-0.46875 z M 286.98721,436.52 q 1.73437,0 2.71875,1.01562 0.98437,1.01563 0.98437,2.8125 v 6.09375 h -1.73437 v -5.64062 q 0,-1.25 -0.70313,-1.9375 -0.6875,-0.70313 -1.92187,-0.70313 -1.32813,0.0156 -2.15625,0.84375 -0.82813,0.82813 -0.9375,2.15625 v 5.28125 h -1.73438 v -9.875 h 1.73438 v 2.09375 q 0.98437,-2.10937 3.75,-2.14062 z m 10.90384,0 q 1.48437,0 2.625,0.64062 1.15625,0.625 1.79687,1.75 0.64063,1.125 0.64063,2.59375 0,1.45313 -0.64063,2.59375 -0.64062,1.125 -1.79687,1.76563 -1.14063,0.64062 -2.625,0.64062 -1.48438,0 -2.64063,-0.64062 -1.14062,-0.64063 -1.78125,-1.76563 -0.64062,-1.125 -0.64062,-2.59375 0,-1.46875 0.64062,-2.59375 0.64063,-1.125 1.78125,-1.75 1.15625,-0.64062 2.64063,-0.64062 z m 0,1.51562 q -0.96875,0 -1.71875,0.45313 -0.75,0.4375 -1.17188,1.23437 -0.42187,0.78125 -0.42187,1.79688 0,1.01562 0.42187,1.82812 0.42188,0.79688 1.17188,1.23438 0.75,0.4375 1.71875,0.4375 0.95312,0 1.70312,-0.4375 0.76563,-0.4375 1.1875,-1.23438 0.42188,-0.8125 0.42188,-1.82812 0,-1.01563 -0.42188,-1.79688 -0.42187,-0.79687 -1.1875,-1.23437 -0.75,-0.45313 -1.70312,-0.45313 z m 12.78866,7.75 q -1.14062,0.73438 -2.3125,0.73438 -1.1875,0 -1.92187,-0.70313 -0.71875,-0.70312 -0.71875,-2.125 v -5.45312 h -1.39063 v -1.32813 h 1.39063 v -2.65625 h 1.76562 v 2.65625 h 3.01563 v 1.32813 h -3.01563 v 5.14062 q 0,0.82813 0.29688,1.1875 0.29687,0.34375 0.89062,0.34375 0.70313,0 1.53125,-0.46875 z M 323.16168,436.52 q 1.375,0 2.45312,0.64062 1.09375,0.625 1.6875,1.76563 0.59375,1.14062 0.59375,2.60937 0,1.45313 -0.59375,2.59375 -0.57812,1.125 -1.65625,1.75 -1.07812,0.625 -2.45312,0.625 -1.25,0 -2.20313,-0.51562 -0.95312,-0.53125 -1.48437,-1.5 v 1.95312 h -1.73438 v -13.84375 h 1.73438 v 5.9375 q 0.53125,-0.96875 1.46875,-1.48437 0.95312,-0.53125 2.1875,-0.53125 z m -0.34375,8.46875 q 0.95312,0 1.70312,-0.4375 0.76563,-0.45313 1.1875,-1.25 0.42188,-0.8125 0.42188,-1.82813 0,-0.98437 -0.4375,-1.78125 -0.42188,-0.8125 -1.17188,-1.25 -0.75,-0.45312 -1.70312,-0.45312 -0.95313,0 -1.70313,0.45312 -0.75,0.4375 -1.1875,1.25 -0.42187,0.79688 -0.42187,1.78125 0,1.03125 0.42187,1.82813 0.4375,0.79687 1.1875,1.25 0.75,0.4375 1.70313,0.4375 z M 334.42001,436.52 q 1.48437,0 2.625,0.64062 1.15625,0.625 1.79687,1.75 0.64063,1.125 0.64063,2.59375 0,1.45313 -0.64063,2.59375 -0.64062,1.125 -1.79687,1.76563 -1.14063,0.64062 -2.625,0.64062 -1.48438,0 -2.64063,-0.64062 -1.14062,-0.64063 -1.78125,-1.76563 -0.64062,-1.125 -0.64062,-2.59375 0,-1.46875 0.64062,-2.59375 0.64063,-1.125 1.78125,-1.75 1.15625,-0.64062 2.64063,-0.64062 z m 0,1.51562 q -0.96875,0 -1.71875,0.45313 -0.75,0.4375 -1.17188,1.23437 -0.42187,0.78125 -0.42187,1.79688 0,1.01562 0.42187,1.82812 0.42188,0.79688 1.17188,1.23438 0.75,0.4375 1.71875,0.4375 0.95312,0 1.70312,-0.4375 0.76563,-0.4375 1.1875,-1.23438 0.42188,-0.8125 0.42188,-1.82812 0,-1.01563 -0.42188,-1.79688 -0.42187,-0.79687 -1.1875,-1.23437 -0.75,-0.45313 -1.70312,-0.45313 z m 9.22613,0.65625 q 0.48438,-1.0625 1.375,-1.60937 0.89063,-0.54688 2.125,-0.5625 v 1.67187 q -1.51562,-0.0469 -2.45312,0.79688 -0.92188,0.82812 -1.04688,2.25 v 5.20312 h -1.73437 v -9.875 h 1.73437 z m 5.39234,-2.125 h 1.73437 v 9.875 h -1.73437 z m 0.85937,-3.9375 q 0.46875,0 0.76563,0.32813 0.3125,0.3125 0.3125,0.79687 0,0.48438 -0.3125,0.8125 -0.29688,0.3125 -0.76563,0.3125 -0.46875,0 -0.78125,-0.3125 -0.29687,-0.32812 -0.29687,-0.8125 0,-0.48437 0.29687,-0.79687 0.3125,-0.32813 0.78125,-0.32813 z m 9.73682,3.89063 q 1.73437,0 2.71875,1.01562 0.98437,1.01563 0.98437,2.8125 v 6.09375 h -1.73437 v -5.64062 q 0,-1.25 -0.70313,-1.9375 -0.6875,-0.70313 -1.92187,-0.70313 -1.32813,0.0156 -2.15625,0.84375 -0.82813,0.82813 -0.9375,2.15625 v 5.28125 h -1.73438 v -9.875 h 1.73438 v 2.09375 q 0.98437,-2.10937 3.75,-2.14062 z m 15.52884,0.0469 v 8.875 q 0,1.40625 -0.625,2.46875 -0.625,1.0625 -1.76563,1.625 -1.125,0.57813 -2.64062,0.57813 -2.1875,0 -4.0625,-1.375 l 0.76562,-1.26563 q 0.71875,0.59375 1.5,0.875 0.79688,0.29688 1.71875,0.29688 1.53125,0 2.4375,-0.85938 0.92188,-0.85937 0.92188,-2.29687 v -1.375 q -0.51563,0.89062 -1.42188,1.39062 -0.89062,0.48438 -2.04687,0.48438 -1.32813,0 -2.34375,-0.59375 -1.01563,-0.60938 -1.57813,-1.6875 -0.54687,-1.09375 -0.54687,-2.48438 0,-1.39062 0.54687,-2.45312 0.5625,-1.0625 1.57813,-1.65625 1.01562,-0.59375 2.34375,-0.59375 1.17187,0 2.0625,0.48437 0.89062,0.48438 1.40625,1.375 v -1.8125 z m -4.875,8.03125 q 0.90625,0 1.60937,-0.42187 0.71875,-0.4375 1.10938,-1.1875 0.40625,-0.76563 0.40625,-1.71875 0,-0.96875 -0.40625,-1.71875 -0.39063,-0.76563 -1.10938,-1.1875 -0.70312,-0.42188 -1.60937,-0.42188 -0.92188,0 -1.64063,0.42188 -0.71875,0.42187 -1.125,1.1875 -0.40625,0.75 -0.40625,1.71875 0.0156,1.45312 0.89063,2.39062 0.875,0.9375 2.28125,0.9375 z m 13.04062,-12 h 1.73437 v 13.84375 h -1.73437 z m 9.17642,3.92188 q 2.29687,0 3.46875,1.35937 1.17187,1.34375 1.17187,3.75 0,0.375 -0.0156,0.5625 h -7.79688 q 0.20313,1.32813 1.10938,2.10938 0.90625,0.78125 2.23437,0.78125 0.875,0 1.625,-0.3125 0.75,-0.32813 1.3125,-0.90625 l 0.95313,1 q -0.71875,0.78125 -1.75,1.21875 -1.03125,0.42187 -2.28125,0.42187 -1.45313,0 -2.57813,-0.625 -1.125,-0.625 -1.75,-1.76562 -0.625,-1.14063 -0.625,-2.59375 0,-1.45313 0.625,-2.57813 0.625,-1.14062 1.73438,-1.78125 1.125,-0.64062 2.5625,-0.64062 z m 3.07812,4.32812 q -0.0781,-1.34375 -0.90625,-2.10937 -0.8125,-0.78125 -2.15625,-0.78125 -1.3125,0 -2.1875,0.78125 -0.85937,0.78125 -1.01562,2.10937 z m 10.86051,-1.64062 q -1.1875,-1.14063 -2.82813,-1.14063 -0.96875,0 -1.71875,0.4375 -0.75,0.42188 -1.1875,1.20313 -0.42187,0.78125 -0.42187,1.8125 0,1.01562 0.40625,1.8125 0.42187,0.78125 1.15625,1.21875 0.75,0.4375 1.70312,0.4375 0.9375,0 1.70313,-0.3125 0.76562,-0.32813 1.28125,-0.92188 l 0.98437,1.01563 q -0.67187,0.82812 -1.71875,1.28125 -1.03125,0.45312 -2.32812,0.45312 -1.4375,0 -2.5625,-0.64062 -1.10938,-0.64063 -1.73438,-1.76563 -0.625,-1.125 -0.625,-2.57812 0,-1.45313 0.625,-2.59375 0.625,-1.14063 1.73438,-1.76563 1.125,-0.64062 2.5625,-0.64062 1.25,0 2.25,0.39062 1,0.375 1.67187,1.09375 z m 8.8598,6.57812 q -1.14062,0.73438 -2.3125,0.73438 -1.1875,0 -1.92187,-0.70313 -0.71875,-0.70312 -0.71875,-2.125 v -5.45312 h -1.39063 v -1.32813 h 1.39063 v -2.65625 h 1.76562 v 2.65625 h 3.01563 v 1.32813 h -3.01563 v 5.14062 q 0,0.82813 0.29688,1.1875 0.29687,0.34375 0.89062,0.34375 0.70313,0 1.53125,-0.46875 z m 10.82843,-9.21875 v 9.875 h -1.75 v -2.09375 q -0.96875,2.10938 -3.65625,2.15625 -1.71875,0 -2.6875,-1.01562 -0.96875,-1.03125 -0.96875,-2.8125 v -6.10938 h 1.75 v 5.64063 q 0,1.25 0.6875,1.95312 0.6875,0.70313 1.875,0.70313 1.375,-0.0312 2.1875,-0.98438 0.8125,-0.96875 0.8125,-2.45312 v -4.85938 z m 5.12354,2.125 q 0.48437,-1.0625 1.375,-1.60937 0.89062,-0.54688 2.125,-0.5625 v 1.67187 q -1.51563,-0.0469 -2.45313,0.79688 -0.92187,0.82812 -1.04687,2.25 v 5.20312 h -1.73438 v -9.875 h 1.73438 z m 9.34545,-2.17187 q 2.29688,0 3.46875,1.35937 1.17188,1.34375 1.17188,3.75 0,0.375 -0.0156,0.5625 h -7.79687 q 0.20312,1.32813 1.10937,2.10938 0.90625,0.78125 2.23438,0.78125 0.875,0 1.625,-0.3125 0.75,-0.32813 1.3125,-0.90625 l 0.95312,1 q -0.71875,0.78125 -1.75,1.21875 -1.03125,0.42187 -2.28125,0.42187 -1.45312,0 -2.57812,-0.625 -1.125,-0.625 -1.75,-1.76562 -0.625,-1.14063 -0.625,-2.59375 0,-1.45313 0.625,-2.57813 0.625,-1.14062 1.73437,-1.78125 1.125,-0.64062 2.5625,-0.64062 z m 3.07813,4.32812 q -0.0781,-1.34375 -0.90625,-2.10937 -0.8125,-0.78125 -2.15625,-0.78125 -1.3125,0 -2.1875,0.78125 -0.85938,0.78125 -1.01563,2.10937 z m 9.32922,-2.09375 q -0.625,-0.375 -1.35937,-0.59375 -0.73438,-0.21875 -1.40625,-0.21875 -0.78125,0 -1.26563,0.29688 -0.46875,0.28125 -0.46875,0.875 0,0.59375 0.53125,0.90625 0.53125,0.29687 1.60938,0.625 1.03125,0.29687 1.6875,0.59375 0.65625,0.29687 1.10937,0.875 0.45313,0.57812 0.45313,1.53125 0,1.39062 -1.0625,2.125 -1.04688,0.73437 -2.60938,0.73437 -1.10937,0 -2.14062,-0.35937 -1.03125,-0.35938 -1.75,-1.01563 l 0.65625,-1.26562 q 0.625,0.5625 1.51562,0.90625 0.90625,0.32812 1.76563,0.32812 0.85937,0 1.375,-0.3125 0.53125,-0.32812 0.53125,-0.96875 0,-0.67187 -0.54688,-1 -0.54687,-0.34375 -1.67187,-0.6875 -0.98438,-0.28125 -1.60938,-0.5625 -0.625,-0.29687 -1.0625,-0.84375 -0.4375,-0.5625 -0.4375,-1.46875 0,-1.375 1,-2.0625 1.01563,-0.6875 2.51563,-0.6875 0.90625,0 1.76562,0.25 0.875,0.25 1.5,0.67188 z m 6.3761,1.42188 h 13.17188 v 1.23437 h -13.17188 z m 19.85611,-7.57813 h 1.73438 v 13.84375 h -1.73438 z m 9.31705,3.92188 q 1.48437,0 2.625,0.64062 1.15625,0.625 1.79687,1.75 0.64063,1.125 0.64063,2.59375 0,1.45313 -0.64063,2.59375 -0.64062,1.125 -1.79687,1.76563 -1.14063,0.64062 -2.625,0.64062 -1.48438,0 -2.64063,-0.64062 -1.14062,-0.64063 -1.78125,-1.76563 -0.64062,-1.125 -0.64062,-2.59375 0,-1.46875 0.64062,-2.59375 0.64063,-1.125 1.78125,-1.75 1.15625,-0.64062 2.64063,-0.64062 z m 0,1.51562 q -0.96875,0 -1.71875,0.45313 -0.75,0.4375 -1.17188,1.23437 -0.42187,0.78125 -0.42187,1.79688 0,1.01562 0.42187,1.82812 0.42188,0.79688 1.17188,1.23438 0.75,0.4375 1.71875,0.4375 0.95312,0 1.70312,-0.4375 0.76563,-0.4375 1.1875,-1.23438 0.42188,-0.8125 0.42188,-1.82812 0,-1.01563 -0.42188,-1.79688 -0.42187,-0.79687 -1.1875,-1.23437 -0.75,-0.45313 -1.70312,-0.45313 z m 12.78863,7.75 q -1.14062,0.73438 -2.3125,0.73438 -1.1875,0 -1.92187,-0.70313 -0.71875,-0.70312 -0.71875,-2.125 v -5.45312 h -1.39063 v -1.32813 h 1.39063 v -2.65625 h 1.76562 v 2.65625 h 3.01563 v 1.32813 h -3.01563 v 5.14062 q 0,0.82813 0.29688,1.1875 0.29687,0.34375 0.89062,0.34375 0.70313,0 1.53125,-0.46875 z m 7.50031,-7.03125 q -0.625,-0.375 -1.35938,-0.59375 -0.73437,-0.21875 -1.40625,-0.21875 -0.78125,0 -1.26562,0.29688 -0.46875,0.28125 -0.46875,0.875 0,0.59375 0.53125,0.90625 0.53125,0.29687 1.60937,0.625 1.03125,0.29687 1.6875,0.59375 0.65625,0.29687 1.10938,0.875 0.45312,0.57812 0.45312,1.53125 0,1.39062 -1.0625,2.125 -1.04687,0.73437 -2.60937,0.73437 -1.10938,0 -2.14063,-0.35937 -1.03125,-0.35938 -1.75,-1.01563 l 0.65625,-1.26562 q 0.625,0.5625 1.51563,0.90625 0.90625,0.32812 1.76562,0.32812 0.85938,0 1.375,-0.3125 0.53125,-0.32812 0.53125,-0.96875 0,-0.67187 -0.54687,-1 -0.54688,-0.34375 -1.67188,-0.6875 -0.98437,-0.28125 -1.60937,-0.5625 -0.625,-0.29687 -1.0625,-0.84375 -0.4375,-0.5625 -0.4375,-1.46875 0,-1.375 1,-2.0625 1.01562,-0.6875 2.51562,-0.6875 0.90625,0 1.76563,0.25 0.875,0.25 1.5,0.67188 z m 12.17294,-2.23437 q 1.48438,0 2.625,0.64062 1.15625,0.625 1.79688,1.75 0.64062,1.125 0.64062,2.59375 0,1.45313 -0.64062,2.59375 -0.64063,1.125 -1.79688,1.76563 -1.14062,0.64062 -2.625,0.64062 -1.48437,0 -2.64062,-0.64062 -1.14063,-0.64063 -1.78125,-1.76563 -0.64063,-1.125 -0.64063,-2.59375 0,-1.46875 0.64063,-2.59375 0.64062,-1.125 1.78125,-1.75 1.15625,-0.64062 2.64062,-0.64062 z m 0,1.51562 q -0.96875,0 -1.71875,0.45313 -0.75,0.4375 -1.17187,1.23437 -0.42188,0.78125 -0.42188,1.79688 0,1.01562 0.42188,1.82812 0.42187,0.79688 1.17187,1.23438 0.75,0.4375 1.71875,0.4375 0.95313,0 1.70313,-0.4375 0.76562,-0.4375 1.1875,-1.23438 0.42187,-0.8125 0.42187,-1.82812 0,-1.01563 -0.42187,-1.79688 -0.42188,-0.79687 -1.1875,-1.23437 -0.75,-0.45313 -1.70313,-0.45313 z m 11.11682,-4 q -0.65625,0 -1.10937,0.42188 -0.45313,0.40625 -0.45313,1.15625 v 1.29687 h 2.73438 v 1.32813 h -2.73438 v 8.20312 h -1.73437 v -8.20312 h -1.28125 v -1.32813 h 1.28125 v -1.0625 q 0,-1.07812 0.45312,-1.82812 0.46875,-0.76563 1.20313,-1.14063 0.75,-0.39062 1.60937,-0.39062 0.82813,0 1.71875,0.45312 l -0.40625,1.40625 q -0.67187,-0.3125 -1.28125,-0.3125 z m 11.26838,0 q -0.65625,0 -1.10938,0.42188 -0.45312,0.40625 -0.45312,1.15625 v 1.29687 h 2.73437 v 1.32813 h -2.73437 v 8.20312 h -1.73438 v -8.20312 h -1.28125 v -1.32813 h 1.28125 v -1.0625 q 0,-1.07812 0.45313,-1.82812 0.46875,-0.76563 1.20312,-1.14063 0.75,-0.39062 1.60938,-0.39062 0.82812,0 1.71875,0.45312 l -0.40625,1.40625 q -0.67188,-0.3125 -1.28125,-0.3125 z m 11.47418,2.53125 v 9.875 h -1.75 v -2.09375 q -0.96875,2.10938 -3.65625,2.15625 -1.71875,0 -2.6875,-1.01562 -0.96875,-1.03125 -0.96875,-2.8125 v -6.10938 h 1.75 v 5.64063 q 0,1.25 0.6875,1.95312 0.6875,0.70313 1.875,0.70313 1.375,-0.0312 2.1875,-0.98438 0.8125,-0.96875 0.8125,-2.45312 v -4.85938 z m 8.87353,-0.0469 q 1.73438,0 2.71875,1.01562 0.98438,1.01563 0.98438,2.8125 v 6.09375 h -1.73438 v -5.64062 q 0,-1.25 -0.70312,-1.9375 -0.6875,-0.70313 -1.92188,-0.70313 -1.32812,0.0156 -2.15625,0.84375 -0.82812,0.82813 -0.9375,2.15625 v 5.28125 h -1.73437 v -9.875 h 1.73437 v 2.09375 q 0.98438,-2.10937 3.75,-2.14062 z m 18.61988,2.6875 q -1.1875,-1.14063 -2.82813,-1.14063 -0.96875,0 -1.71875,0.4375 -0.75,0.42188 -1.1875,1.20313 -0.42187,0.78125 -0.42187,1.8125 0,1.01562 0.40625,1.8125 0.42187,0.78125 1.15625,1.21875 0.75,0.4375 1.70312,0.4375 0.9375,0 1.70313,-0.3125 0.76562,-0.32813 1.28125,-0.92188 l 0.98437,1.01563 q -0.67187,0.82812 -1.71875,1.28125 -1.03125,0.45312 -2.32812,0.45312 -1.4375,0 -2.5625,-0.64062 -1.10938,-0.64063 -1.73438,-1.76563 -0.625,-1.125 -0.625,-2.57812 0,-1.45313 0.625,-2.59375 0.625,-1.14063 1.73438,-1.76563 1.125,-0.64062 2.5625,-0.64062 1.25,0 2.25,0.39062 1,0.375 1.67187,1.09375 z m 7.65673,-2.6875 q 1.48438,0 2.625,0.64062 1.15625,0.625 1.79688,1.75 0.64062,1.125 0.64062,2.59375 0,1.45313 -0.64062,2.59375 -0.64063,1.125 -1.79688,1.76563 -1.14062,0.64062 -2.625,0.64062 -1.48437,0 -2.64062,-0.64062 -1.14063,-0.64063 -1.78125,-1.76563 -0.64063,-1.125 -0.64063,-2.59375 0,-1.46875 0.64063,-2.59375 0.64062,-1.125 1.78125,-1.75 1.15625,-0.64062 2.64062,-0.64062 z m 0,1.51562 q -0.96875,0 -1.71875,0.45313 -0.75,0.4375 -1.17187,1.23437 -0.42188,0.78125 -0.42188,1.79688 0,1.01562 0.42188,1.82812 0.42187,0.79688 1.17187,1.23438 0.75,0.4375 1.71875,0.4375 0.95313,0 1.70313,-0.4375 0.76562,-0.4375 1.1875,-1.23438 0.42187,-0.8125 0.42187,-1.82812 0,-1.01563 -0.42187,-1.79688 -0.42188,-0.79687 -1.1875,-1.23437 -0.75,-0.45313 -1.70313,-0.45313 z m 16.67932,-5.4375 v 13.84375 h -1.73437 v -1.95312 q -0.5625,0.98437 -1.5,1.51562 -0.9375,0.53125 -2.1875,0.53125 -1.40625,0 -2.48438,-0.64062 -1.0625,-0.64063 -1.65625,-1.78125 -0.59375,-1.15625 -0.59375,-2.64063 0,-1.45312 0.59375,-2.57812 0.59375,-1.125 1.65625,-1.75 1.07813,-0.64063 2.46875,-0.64063 1.26563,0 2.21875,0.51563 0.95313,0.51562 1.48438,1.51562 v -5.9375 z m -5.0625,12.4375 q 0.96875,0 1.71875,-0.4375 0.75,-0.45312 1.17188,-1.25 0.4375,-0.8125 0.4375,-1.8125 0,-1.03125 -0.4375,-1.82812 -0.42188,-0.79688 -1.17188,-1.25 -0.75,-0.45313 -1.71875,-0.45313 -0.98437,0 -1.73437,0.46875 -0.75,0.45313 -1.1875,1.26563 -0.42188,0.79687 -0.42188,1.79687 0,1 0.42188,1.8125 0.4375,0.79688 1.1875,1.25 0.75,0.4375 1.73437,0.4375 z m 8.56122,-8.46875 h 1.73438 v 9.875 h -1.73438 z m 0.85938,-3.9375 q 0.46875,0 0.76562,0.32813 0.3125,0.3125 0.3125,0.79687 0,0.48438 -0.3125,0.8125 -0.29687,0.3125 -0.76562,0.3125 -0.46875,0 -0.78125,-0.3125 -0.29688,-0.32812 -0.29688,-0.8125 0,-0.48437 0.29688,-0.79687 0.3125,-0.32813 0.78125,-0.32813 z m 9.73681,3.89063 q 1.73438,0 2.71875,1.01562 0.98438,1.01563 0.98438,2.8125 v 6.09375 h -1.73438 v -5.64062 q 0,-1.25 -0.70312,-1.9375 -0.6875,-0.70313 -1.92188,-0.70313 -1.32812,0.0156 -2.15625,0.84375 -0.82812,0.82813 -0.9375,2.15625 v 5.28125 h -1.73437 v -9.875 h 1.73437 v 2.09375 q 0.98438,-2.10937 3.75,-2.14062 z m 15.52887,0.0469 v 8.875 q 0,1.40625 -0.625,2.46875 -0.625,1.0625 -1.76562,1.625 -1.125,0.57813 -2.64063,0.57813 -2.1875,0 -4.0625,-1.375 l 0.76563,-1.26563 q 0.71875,0.59375 1.5,0.875 0.79687,0.29688 1.71875,0.29688 1.53125,0 2.4375,-0.85938 0.92187,-0.85937 0.92187,-2.29687 v -1.375 q -0.51562,0.89062 -1.42187,1.39062 -0.89063,0.48438 -2.04688,0.48438 -1.32812,0 -2.34375,-0.59375 -1.01562,-0.60938 -1.57812,-1.6875 -0.54688,-1.09375 -0.54688,-2.48438 0,-1.39062 0.54688,-2.45312 0.5625,-1.0625 1.57812,-1.65625 1.01563,-0.59375 2.34375,-0.59375 1.17188,0 2.0625,0.48437 0.89063,0.48438 1.40625,1.375 v -1.8125 z m -4.875,8.03125 q 0.90625,0 1.60938,-0.42187 0.71875,-0.4375 1.10937,-1.1875 0.40625,-0.76563 0.40625,-1.71875 0,-0.96875 -0.40625,-1.71875 -0.39062,-0.76563 -1.10937,-1.1875 -0.70313,-0.42188 -1.60938,-0.42188 -0.92187,0 -1.64062,0.42188 -0.71875,0.42187 -1.125,1.1875 -0.40625,0.75 -0.40625,1.71875 0.0156,1.45312 0.89062,2.39062 0.875,0.9375 2.28125,0.9375 z m 12.94684,-8.03125 h 1.73438 v 9.875 h -1.73438 z m 0.85938,-3.9375 q 0.46875,0 0.76562,0.32813 0.3125,0.3125 0.3125,0.79687 0,0.48438 -0.3125,0.8125 -0.29687,0.3125 -0.76562,0.3125 -0.46875,0 -0.78125,-0.3125 -0.29688,-0.32812 -0.29688,-0.8125 0,-0.48437 0.29688,-0.79687 0.3125,-0.32813 0.78125,-0.32813 z m 9.73681,3.89063 q 1.73438,0 2.71875,1.01562 0.98438,1.01563 0.98438,2.8125 v 6.09375 h -1.73438 v -5.64062 q 0,-1.25 -0.70312,-1.9375 -0.6875,-0.70313 -1.92188,-0.70313 -1.32812,0.0156 -2.15625,0.84375 -0.82812,0.82813 -0.9375,2.15625 v 5.28125 h -1.73437 v -9.875 h 1.73437 v 2.09375 q 0.98438,-2.10937 3.75,-2.14062 z m 5.1695,0.0469 h 1.84375 l 2.96875,8.15625 2.9375,-8.15625 h 1.76562 l -3.84375,9.875 h -1.8125 z m 15.24902,-0.0469 q 1.48438,0 2.625,0.64062 1.15625,0.625 1.79688,1.75 0.64062,1.125 0.64062,2.59375 0,1.45313 -0.64062,2.59375 -0.64063,1.125 -1.79688,1.76563 -1.14062,0.64062 -2.625,0.64062 -1.48437,0 -2.64062,-0.64062 -1.14063,-0.64063 -1.78125,-1.76563 -0.64063,-1.125 -0.64063,-2.59375 0,-1.46875 0.64063,-2.59375 0.64062,-1.125 1.78125,-1.75 1.15625,-0.64062 2.64062,-0.64062 z m 0,1.51562 q -0.96875,0 -1.71875,0.45313 -0.75,0.4375 -1.17187,1.23437 -0.42188,0.78125 -0.42188,1.79688 0,1.01562 0.42188,1.82812 0.42187,0.79688 1.17187,1.23438 0.75,0.4375 1.71875,0.4375 0.95313,0 1.70313,-0.4375 0.76562,-0.4375 1.1875,-1.23438 0.42187,-0.8125 0.42187,-1.82812 0,-1.01563 -0.42187,-1.79688 -0.42188,-0.79687 -1.1875,-1.23437 -0.75,-0.45313 -1.70313,-0.45313 z m 7.58557,-5.4375 h 1.73438 v 13.84375 h -1.73438 z m 3.58264,3.96875 h 1.84375 l 2.96875,8.15625 2.9375,-8.15625 h 1.76563 l -3.84375,9.875 h -1.8125 z m 15.10846,-0.0469 q 2.29688,0 3.46875,1.35937 1.17188,1.34375 1.17188,3.75 0,0.375 -0.0156,0.5625 h -7.79687 q 0.20312,1.32813 1.10937,2.10938 0.90625,0.78125 2.23438,0.78125 0.875,0 1.625,-0.3125 0.75,-0.32813 1.3125,-0.90625 l 0.95312,1 q -0.71875,0.78125 -1.75,1.21875 -1.03125,0.42187 -2.28125,0.42187 -1.45312,0 -2.57812,-0.625 -1.125,-0.625 -1.75,-1.76562 -0.625,-1.14063 -0.625,-2.59375 0,-1.45313 0.625,-2.57813 0.625,-1.14062 1.73437,-1.78125 1.125,-0.64062 2.5625,-0.64062 z m 3.07813,4.32812 q -0.0781,-1.34375 -0.90625,-2.10937 -0.8125,-0.78125 -2.15625,-0.78125 -1.3125,0 -2.1875,0.78125 -0.85938,0.78125 -1.01563,2.10937 z m 13.12616,-8.25 v 13.84375 h -1.73438 v -1.95312 q -0.5625,0.98437 -1.5,1.51562 -0.9375,0.53125 -2.1875,0.53125 -1.40625,0 -2.48437,-0.64062 -1.0625,-0.64063 -1.65625,-1.78125 -0.59375,-1.15625 -0.59375,-2.64063 0,-1.45312 0.59375,-2.57812 0.59375,-1.125 1.65625,-1.75 1.07812,-0.64063 2.46875,-0.64063 1.26562,0 2.21875,0.51563 0.95312,0.51562 1.48437,1.51562 v -5.9375 z m -5.0625,12.4375 q 0.96875,0 1.71875,-0.4375 0.75,-0.45312 1.17187,-1.25 0.4375,-0.8125 0.4375,-1.8125 0,-1.03125 -0.4375,-1.82812 -0.42187,-0.79688 -1.17187,-1.25 -0.75,-0.45313 -1.71875,-0.45313 -0.98438,0 -1.73438,0.46875 -0.75,0.45313 -1.1875,1.26563 -0.42187,0.79687 -0.42187,1.79687 0,1 0.42187,1.8125 0.4375,0.79688 1.1875,1.25 0.75,0.4375 1.73438,0.4375 z m 8.17059,-11.46875 h 1.67188 v 3.1875 l -0.28125,5.67188 h -1.14063 l -0.25,-5.67188 z m 0.82813,10.89063 q 0.4375,0 0.71875,0.3125 0.29687,0.29687 0.29687,0.75 0,0.46875 -0.29687,0.78125 -0.28125,0.3125 -0.71875,0.3125 -0.42188,0 -0.71875,-0.3125 -0.29688,-0.3125 -0.29688,-0.78125 0,-0.45313 0.29688,-0.75 0.29687,-0.3125 0.71875,-0.3125 z"
       id="path35"
       inkscape:connector-curvature="0"
       style="fill:#c7f464;fill-rule:nonzero" />
  </g>
</svg>
