<?xml version="1.0" standalone="no"?>
<!DOCTYPE svg PUBLIC "-//W3C//DTD SVG 20010904//EN"
 "http://www.w3.org/TR/2001/REC-SVG-20010904/DTD/svg10.dtd">
<svg version="1.0" xmlns="http://www.w3.org/2000/svg"
 width="700.000000pt" height="700.000000pt" viewBox="0 0 700.000000 700.000000"
 preserveAspectRatio="xMidYMid meet">
<metadata>
Created by potrace 1.11, written by Peter Selinger 2001-2013
</metadata>
<g transform="translate(0.000000,700.000000) scale(0.100000,-0.100000)"
fill="#000000" stroke="none">
<path d="M4302 6681 c-11 -6 -9 -9 5 -13 16 -4 19 -13 18 -49 -2 -29 -6 -43
-14 -41 -7 1 -10 -2 -7 -7 3 -4 17 -8 32 -8 18 0 22 3 15 10 -6 6 -11 35 -11
64 0 53 -8 63 -38 44z"/>
<path d="M4426 6681 c-4 -6 -3 -11 1 -11 5 0 9 -13 9 -30 1 -16 -3 -30 -8 -30
-5 0 -6 -5 -3 -10 11 -18 23 -1 23 33 0 40 -12 65 -22 48z"/>
<path d="M4500 6675 c-6 -8 -10 -20 -7 -27 4 -8 6 -7 6 5 1 9 8 17 16 17 13 0
13 -3 3 -20 -7 -11 -19 -20 -26 -20 -10 0 -10 -5 -2 -20 6 -11 16 -20 22 -20
7 0 7 4 0 13 -7 8 -6 18 4 31 14 20 17 17 15 -19 -1 -17 1 -16 9 4 8 18 7 30
-5 47 -18 28 -19 28 -35 9z"/>
<path d="M4672 6655 c0 -28 4 -35 17 -33 10 2 16 13 16 33 0 20 -6 31 -16 33
-13 2 -17 -5 -17 -33z m28 0 c0 -33 -15 -33 -16 0 -1 14 2 25 7 25 5 0 9 -11
9 -25z"/>
<path d="M4010 6645 c-25 -30 -15 -107 15 -119 16 -6 46 25 47 50 4 57 -36
101 -62 69z m40 -14 c0 -15 -37 -55 -42 -45 -9 15 10 54 27 54 8 0 15 -4 15
-9z m6 -66 c-4 -14 -13 -25 -21 -25 -20 0 -19 15 2 47 19 28 29 17 19 -22z"/>
<path d="M4173 6650 c-40 -16 -48 -118 -11 -142 35 -22 64 0 68 52 4 43 1 57
-17 78 -14 16 -23 18 -40 12z m30 -16 c7 -7 -34 -74 -46 -74 -9 0 -3 52 8 69
7 12 28 15 38 5z m14 -66 c-8 -46 -18 -58 -38 -47 -19 9 -18 11 3 39 26 36 40
39 35 8z"/>
<path d="M4750 6653 c5 -2 8 -9 5 -13 -3 -5 0 -12 6 -15 7 -5 10 -1 7 10 -1
10 -9 20 -16 21 -7 1 -8 0 -2 -3z"/>
<path d="M3863 6622 c-39 -19 -43 -36 -8 -30 l25 5 -1 -78 c-1 -44 -5 -80 -10
-80 -5 -1 -14 -2 -21 -3 -6 0 -13 -7 -15 -13 -4 -10 12 -13 56 -13 46 0 61 3
61 14 0 9 -7 13 -20 11 -18 -3 -20 2 -21 53 0 31 0 76 1 98 1 23 -2 44 -7 47
-4 2 -23 -2 -40 -11z"/>
<path d="M4578 6633 c-30 -7 -40 -81 -16 -110 12 -15 44 -17 53 -3 26 42 -1
121 -37 113z m28 -48 c7 -40 -1 -68 -18 -63 -19 7 -20 24 -3 41 22 23 18 33
-5 12 -17 -16 -20 -16 -20 -2 0 54 36 64 46 12z"/>
<path d="M4730 6628 c0 -9 5 -20 10 -23 13 -8 13 5 0 25 -8 13 -10 13 -10 -2z"/>
<path d="M4650 6578 c-11 -22 -10 -22 4 -4 9 11 19 16 23 12 5 -4 -2 -15 -13
-25 -18 -14 -20 -20 -9 -34 12 -17 14 -17 29 -1 9 9 14 19 10 23 -4 3 -9 0
-11 -6 -3 -7 -9 -13 -14 -13 -6 0 -5 8 1 20 6 11 16 18 21 14 7 -4 7 1 0 15
-15 27 -28 27 -41 -1z"/>
<path d="M4734 6569 c-3 -6 -3 -13 0 -16 3 -4 6 -1 6 6 0 7 5 9 10 6 6 -4 8
-10 6 -14 -3 -4 -1 -13 5 -21 6 -11 9 -9 9 11 0 27 -24 46 -36 28z"/>
<path d="M4415 6530 c-20 -38 -19 -84 1 -115 20 -31 58 -32 78 -3 34 49 8 148
-39 148 -17 0 -29 -9 -40 -30z m58 -14 c-25 -42 -48 -65 -54 -55 -9 15 7 70
23 80 16 10 40 -10 31 -25z m13 -82 c-4 -15 -14 -24 -26 -24 -32 0 -33 18 -3
57 26 34 28 35 31 14 2 -13 1 -34 -2 -47z"/>
<path d="M4730 6525 c0 -8 4 -15 8 -15 5 0 9 7 9 15 0 8 -4 15 -9 15 -4 0 -8
-7 -8 -15z"/>
<path d="M3584 6495 c-38 -39 -55 -89 -53 -159 4 -113 63 -190 132 -172 62 15
102 126 84 234 -17 103 -104 155 -163 97z m87 -24 c20 -16 22 -22 12 -42 -17
-35 -104 -142 -110 -135 -9 9 -4 97 7 132 10 30 43 64 61 64 4 0 17 -8 30 -19z
m43 -163 c-8 -70 -32 -108 -67 -108 -21 0 -57 26 -57 42 0 5 26 42 58 83 l57
75 6 -30 c4 -16 5 -44 3 -62z"/>
<path d="M4293 6499 c-27 -10 -30 -21 -6 -17 15 3 18 -6 19 -50 1 -37 -3 -55
-12 -59 -25 -9 -6 -20 27 -15 22 3 27 7 18 13 -9 5 -14 29 -14 68 -1 33 -3 62
-5 64 -3 3 -15 1 -27 -4z"/>
<path d="M3334 6486 c-49 -21 -54 -39 -10 -33 l36 5 0 -109 0 -109 -31 0 c-20
0 -29 -4 -27 -12 6 -17 140 -17 145 -1 3 7 -8 13 -24 15 l-28 3 -2 115 c-1 63
-2 121 -2 128 -1 15 -18 15 -57 -2z"/>
<path d="M4041 6476 c-9 -11 -8 -14 5 -12 15 1 18 -8 19 -51 1 -46 -2 -53 -19
-53 -10 0 -17 -3 -13 -6 9 -9 77 -11 77 -2 0 5 -7 8 -16 8 -9 0 -14 8 -13 18
1 9 1 38 0 65 -1 49 -16 62 -40 33z"/>
<path d="M4750 6479 c0 -5 5 -7 10 -4 6 4 10 -8 10 -29 0 -19 -6 -37 -12 -39
-7 -3 1 -5 17 -5 17 0 24 2 18 5 -8 2 -13 22 -13 44 0 28 -4 39 -15 39 -8 0
-15 -5 -15 -11z"/>
<path d="M4587 6462 c-34 -37 -24 -125 15 -138 30 -9 58 27 58 75 0 59 -43 96
-73 63z m43 -16 c0 -8 -11 -28 -25 -43 -24 -28 -24 -28 -25 -5 0 13 5 32 10
43 12 22 40 26 40 5z m15 -56 c-5 -38 -12 -50 -30 -50 -24 0 -25 16 -2 48 28
40 37 40 32 2z"/>
<path d="M4688 6449 c3 -20 0 -34 -9 -40 -11 -7 -9 -9 6 -9 18 0 20 5 17 40
-2 22 -7 40 -11 40 -4 0 -5 -14 -3 -31z"/>
<path d="M4165 6434 c-22 -11 -24 -13 -7 -10 21 4 22 1 22 -54 0 -47 -3 -59
-17 -63 -10 -3 2 -5 27 -5 25 0 37 2 28 5 -18 4 -23 40 -18 116 1 15 0 27 -2
27 -2 -1 -16 -7 -33 -16z"/>
<path d="M3103 6385 c-41 -18 -42 -29 -3 -23 l30 5 0 -94 c0 -69 -3 -93 -12
-92 -25 3 -39 -1 -33 -10 7 -12 115 -7 115 5 0 5 -4 10 -10 10 -5 1 -14 2 -20
3 -6 0 -10 44 -10 106 0 114 0 115 -57 90z"/>
<path d="M3923 6369 c-46 -17 -73 -105 -54 -176 34 -124 152 -89 152 45 1 94
-42 152 -98 131z m38 -29 c10 -6 19 -14 19 -19 0 -4 -20 -34 -45 -65 l-45 -58
0 46 c0 47 13 84 34 98 14 10 14 10 37 -2z m33 -117 c-2 -29 -11 -55 -23 -67
-19 -18 -21 -18 -46 -2 l-26 17 43 54 c23 30 45 52 49 49 4 -2 5 -25 3 -51z"/>
<path d="M4700 6360 c-10 -7 -11 -10 -2 -10 7 0 12 -15 12 -39 0 -22 -5 -42
-12 -44 -7 -3 0 -6 16 -6 21 -1 26 2 19 12 -6 6 -9 27 -8 44 2 41 -6 55 -25
43z"/>
<path d="M4777 6363 c-9 -8 -9 -46 -1 -67 8 -22 31 -20 44 4 11 21 4 70 -12
70 -5 0 -6 -4 -3 -10 3 -5 -1 -20 -10 -32 -17 -23 -17 -23 -13 10 5 35 5 35
-5 25z m35 -48 c-2 -14 -8 -25 -13 -25 -12 0 -11 7 1 31 14 26 18 24 12 -6z"/>
<path d="M4440 6314 c-25 -13 -25 -14 -2 -14 23 0 24 -1 24 -55 0 -59 -2 -66
-11 -60 -5 3 -12 1 -16 -5 -4 -6 9 -10 34 -10 23 0 41 5 41 10 0 6 -5 9 -12 8
-14 -3 -15 2 -17 82 -1 64 -2 66 -41 44z"/>
<path d="M4317 6302 c-21 -23 -22 -76 -1 -96 8 -9 17 -16 19 -16 15 0 35 37
35 65 0 18 -7 41 -16 49 -19 20 -17 20 -37 -2z m33 -11 c0 -5 -9 -19 -20 -32
-15 -19 -19 -21 -20 -7 0 27 11 48 26 48 8 0 14 -4 14 -9z m10 -46 c0 -24 -24
-45 -36 -32 -5 5 24 57 32 57 2 0 4 -11 4 -25z"/>
<path d="M4578 6249 c-57 -72 -12 -215 59 -188 55 21 66 147 17 196 -19 20
-57 15 -76 -8z m66 -15 c6 -15 -49 -94 -64 -94 -10 0 -5 49 9 83 12 30 45 37
55 11z m12 -118 c-10 -25 -21 -36 -36 -36 -34 0 -33 25 2 72 31 42 33 43 41
22 5 -14 3 -35 -7 -58z"/>
<path d="M4844 6248 c-4 -6 -3 -8 3 -5 6 4 10 -7 11 -26 0 -17 -5 -35 -11 -39
-8 -5 -5 -8 8 -8 18 0 20 5 17 45 -4 44 -14 56 -28 33z"/>
<path d="M4118 6233 c-10 -2 -18 -8 -18 -13 0 -5 7 -7 15 -4 12 5 15 -4 15
-50 0 -43 -3 -56 -15 -56 -8 0 -15 -3 -15 -8 0 -4 16 -7 35 -8 33 0 48 10 24
18 -6 2 -11 30 -11 66 -1 34 -4 61 -7 61 -3 -1 -14 -3 -23 -6z"/>
<path d="M4744 6206 c-8 -32 3 -66 21 -66 20 0 38 38 31 66 -9 32 -44 32 -52
0z m40 -2 c8 -20 -2 -54 -14 -54 -12 0 -24 46 -15 59 9 16 22 13 29 -5z"/>
<path d="M4765 6189 c-4 -6 -5 -12 -2 -15 2 -3 7 2 10 11 7 17 1 20 -8 4z"/>
<path d="M3298 6166 c-16 -12 -16 -14 1 -42 10 -16 42 -50 72 -74 78 -63 78
-64 34 -45 -147 63 -270 96 -415 112 -55 6 -68 6 -128 4 -45 -1 -53 -27 -17
-56 l29 -22 -22 -37 c-12 -20 -22 -52 -22 -70 0 -27 -10 -42 -52 -82 l-53 -49
35 -3 c39 -4 106 14 132 36 16 13 23 11 70 -26 29 -23 67 -53 83 -67 l30 -26
-39 16 c-57 22 -78 19 -117 -21 -29 -31 -38 -34 -67 -29 l-33 6 7 -35 c5 -32
4 -36 -15 -36 -11 0 -21 4 -21 9 0 18 -59 71 -79 71 -28 0 -39 -46 -29 -129 4
-36 7 -85 7 -108 l1 -41 -82 33 c-105 43 -159 53 -177 32 -10 -13 -9 -21 3
-44 27 -52 155 -161 221 -189 l37 -15 -36 -34 c-39 -35 -47 -64 -18 -66 39 -2
62 -6 69 -13 4 -3 0 -28 -9 -54 -60 -177 -106 -294 -133 -342 -166 -285 -166
-293 -17 -440 126 -125 227 -167 312 -132 49 20 72 43 132 136 94 142 183 215
264 216 18 0 79 25 145 58 138 71 160 77 199 57 36 -18 102 -100 136 -167 26
-51 56 -166 46 -172 -4 -2 -23 -2 -42 -1 -19 2 -77 6 -129 10 -52 3 -122 12
-157 19 -34 7 -68 10 -74 6 -18 -11 -5 -108 28 -212 31 -97 31 -154 1 -186
-10 -11 -26 -19 -36 -17 -10 2 -24 4 -31 4 -7 1 -32 21 -55 45 -46 49 -65 49
-68 1 -3 -39 22 -86 65 -122 19 -15 44 -41 56 -56 l22 -28 -25 6 c-23 6 -26 3
-33 -31 -12 -65 3 -86 81 -113 39 -13 73 -29 78 -35 17 -25 -181 -182 -373
-296 -30 -18 -78 -49 -106 -70 -66 -49 -109 -62 -159 -45 -52 19 -91 59 -126
133 -59 122 -49 212 38 347 60 91 82 156 79 225 -6 131 -99 237 -240 274 -39
10 -78 30 -118 61 -132 102 -221 125 -386 101 -29 -4 -51 -10 -49 -12 2 -3 37
-13 76 -24 154 -43 182 -83 197 -280 3 -47 9 -89 12 -94 3 -5 0 -6 -5 -3 -6 4
-23 32 -38 62 -15 31 -41 69 -58 86 -35 34 -120 77 -174 89 -33 8 -34 7 -59
-42 l-25 -49 -57 32 c-123 72 -165 89 -209 89 -57 0 -53 -13 16 -61 69 -48 88
-69 100 -115 6 -22 23 -59 39 -84 54 -85 51 -97 -15 -69 -55 23 -56 23 -49 2
2 -10 7 -33 11 -50 6 -30 4 -33 -17 -33 -30 0 -245 71 -353 116 -89 38 -95 39
-95 22 1 -23 33 -53 100 -93 134 -81 303 -216 288 -230 -3 -3 -56 31 -119 75
-102 73 -115 79 -126 64 -20 -27 15 -81 129 -195 57 -57 112 -114 123 -127
l19 -23 -54 7 c-61 8 -61 8 -2 -58 27 -30 22 -48 -13 -48 -54 0 -38 -39 35
-87 27 -18 54 -42 61 -54 11 -21 10 -22 -30 -16 -22 3 -41 3 -41 1 0 -2 11
-22 24 -43 35 -54 39 -114 10 -125 -9 -4 -41 3 -71 14 -29 11 -58 20 -63 20
-23 0 -6 -29 45 -80 48 -47 55 -59 55 -93 0 -34 3 -39 38 -54 50 -21 245 -21
377 0 55 9 188 39 295 66 227 57 316 69 344 48 19 -14 19 -15 -2 -48 -20 -33
-35 -86 -48 -167 -3 -20 -11 -46 -16 -56 -6 -11 -10 -54 -9 -96 2 -73 1 -76
-34 -115 -19 -22 -35 -42 -36 -45 0 -3 -2 -14 -5 -25 -2 -11 -6 -60 -9 -110
-4 -79 -10 -130 -20 -185 -8 -41 -40 -141 -61 -185 -48 -105 -66 -162 -119
-375 -92 -367 -161 -508 -373 -763 -157 -188 -273 -360 -255 -378 37 -37 296
-29 381 12 49 24 61 53 38 97 -24 47 -20 77 15 106 17 14 34 26 39 26 24 0
164 239 190 325 17 54 100 217 174 339 49 82 146 213 235 319 11 12 86 107
168 212 235 302 292 349 411 344 105 -5 235 -51 321 -114 71 -52 82 -80 77
-184 -4 -66 -11 -88 -59 -185 -106 -213 -104 -258 8 -312 184 -86 485 -378
529 -512 17 -51 51 -89 101 -115 36 -18 86 -70 108 -112 9 -16 26 -64 38 -105
39 -138 49 -148 167 -158 173 -14 305 -4 335 26 17 18 18 21 2 58 -27 64 -94
143 -153 181 -68 43 -587 555 -639 630 -52 76 -71 142 -61 214 10 73 38 131
118 239 182 245 213 345 168 549 -24 109 -17 150 32 200 50 49 88 31 164 -77
61 -86 82 -108 110 -113 20 -4 21 -6 30 -119 3 -41 11 -93 16 -115 6 -22 13
-50 15 -62 12 -53 70 -206 115 -300 63 -133 125 -226 173 -256 71 -47 218 -59
273 -22 20 13 22 18 12 52 -14 53 -52 125 -193 373 -193 339 -370 700 -400
817 -18 69 -7 122 32 152 30 25 58 26 104 7 45 -19 78 -52 134 -131 26 -36 51
-65 56 -65 4 0 24 -24 43 -52 20 -29 60 -84 91 -123 32 -41 60 -88 66 -113 7
-24 30 -71 52 -105 22 -34 76 -132 121 -217 170 -327 221 -442 272 -615 28
-95 48 -141 88 -200 14 -20 28 -57 31 -83 9 -76 24 -119 51 -151 28 -34 203
-123 279 -141 46 -12 54 -11 92 9 83 42 78 53 -159 423 -161 253 -185 293
-204 352 -9 28 -43 103 -74 166 -32 63 -74 156 -95 205 -20 50 -45 108 -55
130 -10 22 -30 69 -45 105 -41 97 -72 162 -224 470 -95 190 -145 303 -155 349
-9 37 -18 141 -21 232 -9 250 -7 243 -145 519 -60 119 -113 235 -120 259 -6
23 -31 72 -54 109 -44 68 -74 141 -83 198 -3 24 1 38 20 55 13 13 32 46 42 72
14 40 27 55 71 83 56 36 68 62 33 71 -17 5 -20 12 -17 42 l3 36 -72 0 c-39 0
-74 3 -77 6 -3 3 -1 30 4 61 14 90 9 98 -64 94 -117 -5 -121 7 -35 95 100 102
110 157 30 179 -64 17 -77 84 -29 152 21 31 17 48 -10 43 -9 -2 -21 -4 -25 -4
-5 -1 -21 -14 -37 -31 l-27 -29 8 45 c5 24 11 68 14 96 4 28 14 61 23 73 21
26 29 153 12 184 -10 20 -13 20 -47 6 -42 -18 -53 -10 -53 42 0 50 -9 63 -44
63 -25 0 -35 6 -49 33 -14 26 -114 117 -129 117 -2 0 -4 -41 -5 -90 -1 -50 -7
-99 -12 -109 -21 -39 -101 -25 -101 18 0 23 -20 41 -46 41 -34 0 -57 28 -50
61 3 15 30 71 61 125 30 55 55 102 55 106 0 16 -20 7 -94 -43 -74 -50 -96 -55
-96 -20 0 29 -53 74 -129 110 -72 35 -101 36 -101 1 0 -30 -31 -25 -81 15 -24
19 -48 35 -53 35 -6 0 -20 -10 -33 -22 l-24 -22 -54 19 c-31 10 -86 19 -129
19 -64 2 -79 6 -116 31 -105 73 -104 73 -132 51z m289 -232 c18 -40 56 -59
163 -83 99 -23 139 -56 141 -116 4 -145 0 -153 -62 -132 -41 14 -100 20 -304
32 -269 15 -314 33 -323 125 -6 63 3 67 89 37 63 -22 93 -24 212 -16 51 3 61
13 25 25 -13 4 -31 12 -42 20 -17 12 -16 13 13 28 28 15 63 64 60 83 -4 21 3
57 8 43 3 -8 12 -29 20 -46z m-469 -76 c17 -17 15 -38 -3 -38 -16 0 -38 34
-28 44 9 9 18 7 31 -6z m906 -118 c44 -53 56 -145 28 -220 -9 -24 -9 -24 -20
7 -6 17 -20 41 -31 52 -32 32 -48 120 -31 167 12 32 23 30 54 -6z m-902 -238
c14 -29 40 -71 58 -94 l31 -43 -30 -3 c-16 -2 -35 -10 -42 -19 -20 -23 7 -38
92 -52 81 -13 91 -9 114 46 8 18 18 33 24 33 16 0 110 -112 130 -155 30 -63
33 -81 17 -98 -9 -8 -21 -17 -27 -19 -7 -2 -15 -43 -20 -105 -9 -118 -25 -181
-52 -197 -10 -6 -34 -36 -53 -67 -60 -100 -108 -98 -239 10 -65 54 -105 81
-120 81 -16 0 21 -43 76 -89 61 -51 61 -52 28 -46 -45 7 -128 23 -159 30 -62
13 -79 14 -84 6 -7 -11 33 -53 97 -101 81 -61 73 -92 -29 -104 -88 -10 -117
-27 -168 -99 -52 -73 -74 -87 -94 -60 -10 13 -12 39 -8 103 6 94 16 134 42
179 21 35 15 46 -18 37 -35 -9 -62 -37 -108 -107 l-42 -64 7 60 c8 71 28 125
68 183 28 42 35 59 36 93 1 9 30 56 65 105 35 49 66 98 69 109 3 11 8 32 11
48 8 34 30 35 52 2 9 -14 21 -25 28 -25 31 -1 38 -16 23 -52 -28 -67 -150
-238 -162 -227 -2 3 13 38 35 79 76 146 37 164 -48 23 -47 -78 -50 -100 -17
-115 23 -10 33 -9 68 10 23 13 76 54 117 93 41 38 98 80 125 93 28 13 71 45
97 70 53 53 110 135 105 150 -8 21 -51 5 -81 -29 -38 -42 -79 -52 -107 -24
-10 10 -19 28 -19 39 0 11 -7 23 -15 26 -23 9 -18 35 18 89 56 86 57 90 43
214 l-8 65 24 -15 c12 -9 35 -39 50 -67z m483 -13 c75 -15 83 -17 136 -40 30
-12 77 -39 104 -59 28 -20 66 -45 85 -54 36 -18 140 -121 188 -185 15 -20 29
-38 33 -41 7 -6 74 -93 109 -141 14 -18 44 -54 67 -79 38 -41 44 -44 63 -32
22 13 30 11 66 -23 47 -45 165 -257 252 -455 79 -178 125 -311 173 -500 21
-85 54 -186 73 -225 51 -106 70 -170 82 -280 12 -120 7 -182 -23 -257 -27 -69
-62 -39 -82 71 -28 146 -66 149 -70 6 -3 -84 -10 -137 -20 -148 -10 -10 -64
-12 -80 -3 -7 5 -11 39 -11 91 0 96 -5 115 -30 115 -21 0 -30 -19 -30 -63 -1
-116 -41 -100 -71 28 -7 28 -16 58 -21 69 -18 34 -39 -6 -53 -100 -7 -49 -17
-97 -21 -107 -8 -23 -44 -37 -89 -37 -42 0 -58 21 -75 100 -42 196 -152 344
-314 426 -38 19 -71 33 -73 31 -10 -10 13 -36 68 -77 104 -77 219 -217 207
-250 -2 -5 -28 0 -58 11 -30 10 -62 19 -72 19 -35 0 -27 -12 90 -140 35 -38
53 -77 47 -103 -3 -12 -40 -58 -81 -101 -41 -43 -73 -83 -71 -90 9 -24 172 7
288 55 95 38 122 43 157 25 52 -27 122 -155 160 -296 30 -109 33 -154 12 -193
-13 -23 -15 -39 -8 -56 4 -13 7 -26 5 -28 -5 -5 -93 73 -154 137 -63 65 -119
141 -130 175 -6 20 -16 30 -29 30 -16 0 -19 -6 -16 -49 1 -26 9 -64 17 -83 28
-67 17 -84 -56 -96 -56 -8 -62 3 -29 53 30 46 31 60 1 60 -38 0 -91 -80 -91
-137 0 -18 -16 -24 -42 -14 -32 12 -159 144 -230 238 -32 43 -67 103 -79 133
-11 30 -29 67 -39 82 -13 18 -22 52 -26 100 -4 40 -11 81 -16 91 -12 24 -35
21 -44 -5 -13 -40 -12 -179 2 -237 21 -87 20 -91 -22 -84 -36 6 -37 5 -30 -21
10 -39 53 -101 79 -114 12 -6 38 -13 57 -14 28 -2 41 -12 71 -52 21 -27 40
-58 43 -70 3 -12 16 -61 30 -110 30 -113 24 -136 -42 -164 -66 -28 -105 -35
-197 -34 -191 2 -404 98 -463 207 -9 17 -39 86 -68 155 -29 71 -58 126 -67
128 -9 2 -20 -11 -29 -35 -13 -32 -59 -214 -71 -278 -2 -11 -7 -33 -11 -50
-11 -42 -158 -385 -165 -384 -3 0 -28 28 -56 61 l-50 62 -13 -45 c-28 -94 -70
-266 -76 -309 -8 -63 -85 -217 -133 -267 -48 -51 -89 -58 -99 -18 -20 80 51
297 117 355 28 26 48 86 75 231 14 77 34 165 44 197 35 107 50 189 75 387 7
58 30 145 52 195 61 137 170 345 192 366 39 38 150 101 199 114 31 8 63 30
114 78 154 144 241 243 269 307 11 25 20 34 23 25 11 -32 26 -129 31 -200 10
-139 20 -190 35 -190 13 0 19 45 25 190 6 150 14 267 21 320 17 112 70 252
103 269 23 13 25 10 40 -46 13 -47 64 -117 155 -212 72 -74 201 -181 221 -181
29 0 -2 45 -105 151 -127 130 -167 198 -176 299 -11 130 -26 176 -119 375 -69
146 -87 195 -92 243 -6 47 12 77 56 93 34 13 90 -22 187 -118 232 -230 438
-501 573 -755 86 -163 114 -181 80 -53 -41 158 -149 341 -269 455 -26 25 -80
90 -120 145 -89 122 -111 148 -213 253 -135 139 -237 225 -278 235 -22 6 -28
15 -38 64 -6 31 -24 80 -41 109 -16 29 -26 55 -22 58 11 6 94 -24 127 -47 74
-52 279 -226 403 -342 205 -192 401 -473 469 -673 19 -58 25 -87 38 -192 8
-62 52 -180 67 -180 14 0 2 237 -16 320 -19 89 -48 162 -115 294 -99 192 -160
266 -521 627 -185 185 -257 251 -295 269 -27 13 -99 51 -160 85 -60 34 -139
72 -175 85 -95 34 -112 52 -67 70 26 11 134 10 192 -1z m885 -56 c0 -71 -82
-183 -134 -183 -15 0 -45 9 -68 21 -48 25 -138 106 -138 125 0 36 95 46 140
14 33 -23 49 -21 126 18 61 31 74 32 74 5z m-1725 -78 c25 -11 26 -14 10 -15
-47 -5 -105 6 -105 20 0 14 60 11 95 -5z m1793 -177 c4 -21 -47 -68 -74 -68
-33 0 -30 13 12 55 36 36 57 41 62 13z m-950 -216 c2 -12 -1 -22 -7 -22 -15 0
-42 31 -35 41 10 17 39 5 42 -19z m1172 3 c-13 -16 -62 -45 -76 -45 -12 0 20
33 51 51 33 21 44 17 25 -6z m-2666 -955 c20 -50 21 -100 2 -125 -12 -16 -16
-17 -30 -6 -15 13 -30 67 -29 106 1 58 4 65 22 65 13 0 24 -13 35 -40z m193
-605 c27 -19 66 -81 68 -109 3 -47 17 -64 68 -87 44 -20 67 -23 155 -22 56 0
102 -3 102 -8 0 -5 15 -18 33 -29 l32 -20 -30 -1 c-98 -5 -138 0 -255 32 -176
48 -290 109 -290 157 0 10 10 12 43 8 30 -4 49 -2 63 9 19 15 19 15 -4 34 -12
11 -28 21 -34 23 -14 5 -2 28 15 28 7 0 22 -7 34 -15z m-114 -382 c4 -3 0 -15
-10 -25 -9 -10 -17 -28 -18 -41 -2 -19 -8 -22 -42 -21 -46 1 -133 40 -133 60
0 7 15 18 33 23 38 11 161 14 170 4z m82 -93 c-10 -4 -30 -4 -44 -2 -22 5 -23
6 -6 12 10 4 30 4 44 2 22 -5 23 -6 6 -12z m-10 -80 c4 -6 -7 -10 -25 -10 -18
0 -29 4 -25 10 3 6 15 10 25 10 10 0 22 -4 25 -10z m3085 -410 c79 -54 163
-142 200 -212 29 -55 32 -69 34 -161 2 -88 7 -113 35 -185 18 -46 30 -86 27
-90 -15 -14 -43 19 -85 99 -24 46 -67 127 -97 179 -30 53 -65 128 -78 167 -30
88 -39 105 -87 169 -42 55 -51 88 -21 77 9 -4 42 -23 72 -43z m-2186 -148 c-5
-41 -30 -78 -96 -147 l-48 -50 38 85 c21 47 49 109 62 138 23 50 24 52 36 30
7 -12 10 -38 8 -56z m1212 -158 c27 -64 16 -204 -21 -260 -38 -59 -60 10 -32
101 18 61 25 103 26 163 1 41 8 41 27 -4z m590 -288 c1 -24 -3 -52 -10 -62
-13 -17 -14 -16 -25 4 -13 25 -17 104 -6 122 14 22 38 -17 41 -64z m-982 -107
c29 -34 23 -62 -16 -75 -36 -11 -50 25 -39 99 2 17 31 5 55 -24z m-42 -176
c58 -63 58 -79 -3 -185 -22 -36 -39 -69 -39 -72 0 -3 26 -19 58 -36 31 -17 67
-39 78 -49 21 -17 60 -81 49 -81 -14 0 -313 205 -332 228 -48 56 -19 142 48
147 25 2 42 12 64 39 17 19 35 36 41 36 5 0 22 -12 36 -27z m1252 -132 c26
-27 27 -31 11 -37 -41 -16 -139 75 -104 97 15 9 49 -13 93 -60z m787 -135 c47
-71 50 -96 11 -96 -40 0 -115 41 -129 70 -13 25 -11 119 2 140 10 16 66 -39
116 -114z m100 -379 c23 -18 30 -44 13 -57 -21 -18 -64 13 -64 45 0 28 24 33
51 12z m-1604 -146 c51 -27 84 -97 63 -132 -7 -11 -15 -8 -37 13 -15 14 -50
38 -78 53 -70 38 -74 43 -47 65 23 19 65 20 99 1z m-2344 -72 c5 -19 1 -60 -8
-86 -14 -39 -77 10 -69 54 9 49 66 73 77 32z m2634 -295 c3 -8 -7 -30 -22 -50
-26 -33 -31 -36 -68 -31 -47 6 -61 18 -53 44 15 46 128 75 143 37z"/>
<path d="M3366 5209 c-31 -37 -33 -55 -6 -62 25 -6 50 26 50 65 0 36 -12 35
-44 -3z"/>
<path d="M4360 3896 c0 -8 48 -75 107 -148 58 -73 115 -147 125 -164 21 -36
38 -46 58 -34 41 25 -223 360 -284 360 -3 0 -6 -6 -6 -14z"/>
<path d="M4155 3861 c-3 -5 16 -27 42 -48 27 -21 77 -67 113 -104 52 -53 69
-77 83 -123 19 -63 67 -140 92 -150 22 -8 37 37 30 88 -9 56 -81 169 -153 238
-83 80 -187 130 -207 99z"/>
<path d="M4256 6154 c-18 -18 -21 -56 -6 -85 12 -20 45 -26 55 -8 11 17 8 79
-5 94 -16 19 -25 19 -44 -1z m17 -40 c-18 -28 -18 -28 -21 -6 -4 28 17 57 31
43 5 -5 2 -20 -10 -37z m18 -47 c-21 -21 -32 7 -13 33 l17 25 3 -24 c2 -13 -1
-28 -7 -34z"/>
<path d="M4858 6113 c-37 -43 -28 -125 15 -139 47 -15 77 83 41 134 -18 27
-36 28 -56 5z m46 -11 c2 -4 -9 -23 -25 -42 l-28 -35 -1 31 c0 16 5 35 12 42
14 14 34 16 42 4z m8 -72 c-5 -34 -27 -49 -44 -32 -7 7 -3 20 13 41 27 36 37
33 31 -9z"/>
<path d="M4444 6095 c-23 -23 -26 -33 -22 -75 6 -57 21 -80 54 -80 31 0 54 36
54 83 0 45 -13 72 -40 87 -17 9 -25 6 -46 -15z m40 -1 c22 -8 20 -16 -14 -59
l-30 -38 0 32 c0 29 15 71 25 71 2 0 10 -3 19 -6z m26 -78 c0 -19 -7 -42 -16
-51 -15 -15 -18 -15 -32 -1 -14 13 -12 19 12 50 15 20 29 36 32 36 2 0 4 -15
4 -34z"/>
<path d="M4739 6092 c-41 -34 -24 -142 23 -142 24 0 48 39 48 78 0 64 -33 94
-71 64z m44 -8 c7 -7 -34 -74 -45 -74 -11 0 -10 38 2 61 10 19 31 25 43 13z
m11 -72 c-7 -34 -18 -46 -39 -39 -13 6 -13 11 7 41 26 39 39 38 32 -2z"/>
<path d="M4564 5946 c-23 -36 -24 -100 -3 -136 45 -73 118 -1 97 95 -14 65
-63 87 -94 41z m61 -7 c4 -5 -6 -28 -21 -50 -32 -47 -49 -35 -33 24 10 37 39
51 54 26z m15 -90 c-11 -39 -19 -49 -36 -49 -27 0 -26 29 2 65 30 40 47 32 34
-16z"/>
<path d="M4722 5912 c-36 -20 -33 -35 4 -26 24 6 24 6 24 -90 0 -96 0 -96 -25
-96 -14 0 -25 -6 -25 -12 0 -17 122 -17 128 0 2 7 -7 12 -22 12 l-26 0 0 115
c0 126 -1 127 -58 97z"/>
<path d="M4863 5917 c-28 -12 -31 -31 -4 -22 17 5 19 0 17 -62 -1 -58 -4 -68
-18 -67 -10 1 -18 -2 -18 -7 0 -5 24 -9 53 -9 35 0 47 3 37 9 -8 6 -18 7 -22
5 -4 -3 -8 31 -8 75 0 44 -3 82 -7 84 -5 3 -18 0 -30 -6z"/>
<path d="M4944 5896 c-8 -35 4 -66 26 -66 22 0 34 31 26 66 -4 15 -14 24 -26
24 -12 0 -22 -9 -26 -24z m42 -10 c6 -26 -1 -46 -16 -46 -12 0 -24 46 -15 59
11 18 24 12 31 -13z"/>
<path d="M4965 5880 c-3 -5 -1 -10 4 -10 6 0 11 5 11 10 0 6 -2 10 -4 10 -3 0
-8 -4 -11 -10z"/>
<path d="M4980 5738 c-22 -36 -19 -81 7 -110 21 -24 39 -23 57 4 31 44 10 138
-30 138 -8 0 -23 -15 -34 -32z m54 4 c2 -4 -9 -23 -25 -42 -26 -33 -28 -33
-29 -12 0 44 37 82 54 54z m11 -61 c-3 -36 -12 -51 -30 -51 -25 0 -27 20 -3
50 29 37 36 37 33 1z"/>
<path d="M4885 5647 l-30 -11 25 -6 c23 -5 24 -10 25 -68 1 -57 -4 -67 -27
-63 -5 0 -8 -3 -8 -9 0 -5 20 -10 45 -10 25 0 45 5 45 10 0 6 -3 9 -7 9 -24
-4 -28 7 -27 77 0 41 -2 76 -5 78 -3 2 -19 -1 -36 -7z"/>
<path d="M5021 5545 c-39 -51 -4 -157 48 -140 42 13 52 112 15 149 -22 23 -40
20 -63 -9z m54 -5 c6 -10 -33 -70 -47 -70 -11 0 -10 38 2 61 11 20 35 25 45 9z
m5 -100 c-11 -21 -35 -27 -45 -10 -3 5 7 27 22 47 l28 37 3 -27 c2 -14 -2 -35
-8 -47z"/>
<path d="M4873 5356 c-33 -15 -31 -38 2 -26 13 5 26 6 28 2 3 -6 2 -162 -2
-186 0 -4 -7 -6 -15 -3 -8 3 -20 -1 -26 -9 -11 -12 -3 -14 53 -14 36 0 69 5
72 10 3 6 0 11 -7 11 -7 1 -20 2 -28 3 -12 1 -15 21 -15 114 0 106 -1 112 -20
111 -11 -1 -30 -6 -42 -13z"/>
<path d="M5043 5338 c-6 -7 -16 -32 -22 -54 -28 -103 64 -188 110 -103 15 28
14 102 -3 136 -15 31 -66 44 -85 21z m62 -25 c0 -11 -7 -22 -51 -80 -13 -17
-13 -17 -15 2 -4 60 14 97 44 93 12 -2 22 -9 22 -15z m11 -109 c-4 -13 -15
-28 -26 -34 -15 -8 -21 -6 -29 9 -8 14 -4 27 22 60 32 42 32 42 35 15 2 -14 1
-37 -2 -50z"/>
<path d="M5007 5008 c-55 -24 -62 -42 -13 -33 l33 7 -1 -109 -1 -108 -27 1
c-18 1 -28 -4 -28 -12 0 -11 18 -14 75 -14 57 0 75 3 75 14 0 9 -10 13 -30 11
l-29 -2 0 129 c1 71 -1 131 -3 133 -2 2 -25 -6 -51 -17z"/>
<path d="M714 4502 c4 -7 2 -12 -4 -12 -7 0 -10 -5 -8 -11 2 -6 8 -10 13 -10
13 1 15 30 3 38 -7 3 -8 1 -4 -5z"/>
<path d="M794 4489 c-4 -7 -3 -9 4 -5 5 3 13 0 15 -6 4 -9 6 -10 6 -1 1 17
-16 25 -25 12z"/>
<path d="M660 4481 c0 -7 -4 -9 -10 -6 -6 4 -7 -1 -3 -11 6 -15 7 -15 15 1 6
9 7 19 4 22 -3 4 -6 1 -6 -6z"/>
<path d="M908 4473 c-3 -4 -5 -21 -6 -38 -1 -23 1 -26 8 -15 5 8 7 23 4 33 -3
9 -1 17 4 17 6 0 9 -16 8 -35 -1 -19 2 -31 7 -26 12 12 5 64 -10 68 -6 2 -13
0 -15 -4z"/>
<path d="M1112 4460 c-16 -26 -15 -62 2 -86 22 -28 50 -7 54 40 5 58 -30 87
-56 46z m38 -3 c0 -19 -27 -53 -36 -45 -9 10 12 58 26 58 5 0 10 -6 10 -13z
m10 -44 c0 -28 -17 -50 -29 -38 -8 8 -6 18 5 33 18 27 24 28 24 5z"/>
<path d="M1248 4467 c-35 -27 -25 -117 13 -117 38 0 54 84 21 113 -15 14 -21
14 -34 4z m32 -14 c0 -5 -9 -19 -20 -33 l-20 -25 0 26 c0 14 3 29 7 32 9 9 33
9 33 0z m0 -72 c-6 -12 -16 -18 -25 -15 -12 5 -11 11 7 37 18 25 23 28 26 15
2 -9 -2 -26 -8 -37z"/>
<path d="M1384 4457 c-24 -21 -28 -32 -29 -75 0 -63 27 -99 68 -88 50 12 58
119 13 164 l-23 24 -29 -25z m48 -19 c3 -7 -4 -21 -13 -33 -10 -11 -25 -29
-33 -40 -15 -19 -15 -19 -16 13 0 18 5 42 10 53 12 21 46 26 52 7z m15 -72
c-6 -44 -14 -56 -37 -56 -30 0 -31 14 -3 53 33 46 46 47 40 3z"/>
<path d="M1000 4460 c-10 -7 -11 -10 -2 -10 7 0 12 -15 12 -39 0 -22 -5 -42
-12 -44 -7 -3 0 -6 16 -6 22 -1 26 2 18 12 -6 7 -9 26 -7 43 5 38 -6 56 -25
44z"/>
<path d="M861 4444 c0 -11 3 -14 6 -6 3 7 2 16 -1 19 -3 4 -6 -2 -5 -13z"/>
<path d="M1580 4430 c-35 -19 -34 -24 8 -20 21 1 22 -1 22 -89 0 -90 0 -91
-25 -91 -14 0 -25 -4 -25 -10 0 -6 29 -10 66 -10 41 0 63 4 59 10 -3 6 -15 10
-26 10 -22 0 -21 -6 -21 123 -1 65 -4 97 -12 97 -6 -1 -27 -9 -46 -20z"/>
<path d="M680 4436 c0 -2 8 -10 18 -17 15 -13 16 -12 3 4 -13 16 -21 21 -21
13z"/>
<path d="M676 4405 c4 -8 11 -15 16 -15 6 0 5 6 -2 15 -7 8 -14 15 -16 15 -2
0 -1 -7 2 -15z"/>
<path d="M795 4410 c-4 -6 1 -7 11 -3 12 4 15 2 12 -8 -3 -8 -11 -13 -17 -11
-16 3 -14 -13 3 -27 11 -9 16 -9 22 0 5 8 3 9 -6 4 -8 -5 -11 -3 -8 6 3 8 10
13 16 12 5 -1 8 7 5 17 -6 21 -28 27 -38 10z"/>
<path d="M738 4363 c5 -21 7 -23 10 -9 2 10 0 22 -6 28 -6 6 -7 0 -4 -19z"/>
<path d="M1756 4360 c-20 -35 -23 -107 -7 -139 28 -52 84 -49 107 5 19 47 17
93 -6 132 -27 44 -68 45 -94 2z m71 -10 c1 -8 -13 -33 -32 -55 l-35 -40 0 38
c0 20 6 46 13 57 14 23 51 23 54 0z m19 -78 c-3 -20 -5 -40 -5 -44 -2 -18 -39
-27 -56 -14 -17 12 -16 16 16 58 19 25 37 44 42 41 4 -2 5 -21 3 -41z"/>
<path d="M897 4373 c-13 -12 -7 -71 7 -76 15 -6 36 11 36 28 0 5 -5 2 -11 -8
-6 -9 -15 -15 -20 -11 -13 8 8 34 28 34 11 0 11 4 3 20 -11 20 -31 26 -43 13z
m23 -23 c-6 -11 -13 -20 -15 -20 -3 0 -5 9 -5 20 0 11 7 20 15 20 13 0 14 -4
5 -20z"/>
<path d="M623 4329 c-1 -10 2 -21 8 -24 5 -4 6 2 2 11 -4 12 -3 15 5 10 7 -4
12 -3 12 2 0 19 -26 20 -27 1z"/>
<path d="M670 4325 c0 -8 4 -15 10 -15 5 0 7 7 4 15 -4 8 -8 15 -10 15 -2 0
-4 -7 -4 -15z"/>
<path d="M1030 4320 c-11 -11 -21 -27 -21 -35 -1 -8 -2 -21 -2 -27 -3 -33 14
-78 33 -88 17 -9 24 -6 45 14 32 32 34 92 4 130 -25 31 -33 32 -59 6z m39 -9
c15 -10 5 -36 -28 -65 -21 -19 -21 -19 -21 2 0 23 20 72 29 72 3 0 12 -4 20
-9z m21 -69 c0 -16 -6 -37 -14 -48 -13 -17 -16 -17 -30 -4 -15 14 -14 19 10
48 15 18 28 32 30 32 2 0 4 -13 4 -28z"/>
<path d="M738 4323 c7 -3 16 -2 19 1 4 3 -2 6 -13 5 -11 0 -14 -3 -6 -6z"/>
<path d="M836 4321 c-4 -6 -2 -11 4 -11 6 0 8 -4 5 -10 -3 -5 -1 -10 4 -10 13
0 14 10 2 29 -6 9 -11 10 -15 2z"/>
<path d="M1175 4305 c-19 -14 -19 -15 5 -12 24 2 25 0 25 -57 0 -48 -3 -60
-17 -64 -33 -8 -18 -18 27 -17 25 0 45 3 45 8 0 4 -8 7 -18 7 -16 0 -18 9 -18
72 1 79 -10 93 -49 63z"/>
<path d="M733 4283 c-18 -7 -16 -58 2 -73 22 -19 37 0 33 40 -3 34 -13 43 -35
33z m15 -31 c-10 -12 -10 -14 0 -8 8 5 12 0 12 -13 0 -29 -17 -26 -24 4 -7 29
0 48 15 39 6 -3 5 -12 -3 -22z"/>
<path d="M1312 4270 c-34 -37 -34 -110 0 -150 39 -45 91 -5 90 70 -1 83 -48
125 -90 80z m54 -15 c6 -15 -44 -88 -55 -80 -10 6 -1 67 11 83 14 16 37 15 44
-3z m15 -87 c-8 -37 -35 -58 -52 -41 -10 10 -6 22 16 53 31 44 46 39 36 -12z"/>
<path d="M838 4262 c-5 -18 -2 -22 15 -22 13 0 17 3 11 8 -6 4 -13 14 -16 22
-3 10 -6 8 -10 -8z"/>
<path d="M643 4255 c0 -6 6 -12 12 -12 6 0 12 6 12 12 0 6 -6 12 -12 12 -6 0
-12 -6 -12 -12z"/>
<path d="M912 4257 c-24 -14 -21 -30 4 -20 11 4 14 -8 14 -61 0 -52 -3 -66
-15 -66 -8 0 -15 -4 -15 -10 0 -5 20 -9 45 -8 25 0 45 4 45 9 0 5 -7 9 -15 9
-16 0 -17 6 -18 103 0 60 -6 65 -45 44z"/>
<path d="M662 4160 c-1 -22 0 -40 2 -40 7 0 12 60 6 70 -4 6 -7 -7 -8 -30z"/>
<path d="M770 4175 c-6 -8 -14 -32 -17 -53 -4 -31 0 -44 19 -66 23 -27 24 -28
46 -9 13 10 24 32 26 48 8 69 -40 121 -74 80z m50 -15 c0 -4 -10 -19 -21 -34
-27 -34 -17 -48 10 -15 l20 24 1 -31 c0 -36 -25 -63 -41 -47 -17 17 -23 91
-10 107 12 14 41 12 41 -4z"/>
<path d="M1464 4135 c-20 -27 -27 -48 -29 -96 -5 -94 31 -159 90 -159 55 0 89
56 88 146 -1 91 -34 144 -89 144 -26 0 -39 -7 -60 -35z m95 -12 c7 -13 2 -26
-17 -52 -44 -58 -65 -81 -75 -81 -15 0 2 112 20 132 20 23 59 23 72 1z m24
-122 c-2 -25 -11 -56 -19 -68 -18 -28 -59 -30 -73 -4 -9 15 -2 30 36 80 51 67
63 65 56 -8z"/>
<path d="M1103 4103 c-12 -10 -32 -40 -44 -67 -54 -123 18 -295 114 -271 95
24 125 230 47 323 -26 32 -87 39 -117 15z m85 -36 l22 -23 -37 -50 c-21 -27
-50 -62 -65 -79 l-28 -30 0 57 c0 62 14 103 44 131 25 23 38 22 64 -6z m38
-159 c-3 -29 -14 -64 -24 -78 -24 -32 -69 -34 -88 -4 -13 19 -10 27 43 93 64
81 78 79 69 -11z"/>
<path d="M672 4036 c-13 -29 -8 -64 12 -84 12 -12 17 -11 35 9 11 12 19 25 16
28 -3 2 -11 -4 -19 -14 -7 -10 -18 -15 -24 -11 -16 10 8 47 28 43 18 -2 15 34
-3 45 -21 13 -34 9 -45 -16z m38 2 c-1 -18 -27 -51 -33 -41 -7 12 11 53 23 53
5 0 10 -6 10 -12z"/>
<path d="M911 4003 c-40 -33 -45 -124 -9 -169 18 -24 50 -23 74 1 49 49 19
185 -41 185 -1 0 -13 -8 -24 -17z m50 -41 c-6 -9 -21 -30 -35 -47 l-25 -30 -1
39 c0 49 24 80 51 65 15 -7 17 -14 10 -27z m19 -56 c0 -19 -8 -43 -17 -55 -16
-19 -20 -20 -37 -8 -19 14 -18 15 10 55 16 23 32 42 37 42 4 0 7 -15 7 -34z"/>
<path d="M773 3913 c-7 -2 -13 -9 -13 -14 0 -4 7 -6 15 -3 12 5 15 -3 13 -45
-2 -33 -7 -51 -15 -51 -7 0 -13 -4 -13 -8 0 -9 58 -7 67 2 4 3 -1 6 -9 6 -12
0 -15 12 -15 57 1 55 -5 67 -30 56z"/>
<path d="M857 3720 c-16 -13 -29 -35 -33 -58 -4 -20 -8 -44 -9 -52 -5 -24 23
-93 42 -107 50 -37 103 11 104 94 2 60 -7 91 -34 121 -25 27 -37 28 -70 2z
m61 -22 c8 -8 1 -25 -30 -70 -22 -32 -42 -58 -42 -58 -1 0 -3 18 -4 40 -5 71
40 124 76 88z m12 -149 c-14 -32 -37 -44 -56 -28 -20 17 -18 26 24 83 l37 51
3 -39 c2 -21 -2 -51 -8 -67z"/>
<path d="M1068 3692 c-36 -22 -36 -35 0 -27 l28 6 -2 -88 c-1 -48 -3 -91 -3
-95 -1 -4 -10 -5 -21 -3 -12 2 -20 -2 -20 -9 0 -9 18 -13 61 -14 41 0 59 3 56
11 -2 7 -9 13 -15 13 -7 1 -16 2 -21 3 -4 0 -7 45 -7 99 2 133 0 138 -56 104z"/>
<path d="M1296 3674 c-34 -34 -47 -72 -47 -144 0 -56 13 -91 42 -119 39 -37
83 -22 117 38 19 33 17 143 -4 183 -30 57 -76 75 -108 42z m70 -32 c10 -15 4
-29 -33 -81 -49 -68 -63 -68 -56 2 10 81 60 126 89 79z m26 -106 c1 -88 -42
-140 -83 -99 -19 19 -19 20 28 85 26 37 49 65 51 64 1 -2 3 -24 4 -50z"/>
<path d="M1473 3432 c-39 -18 -44 -37 -8 -28 26 7 27 5 27 -59 0 -116 -2 -125
-22 -125 -11 0 -20 -6 -20 -13 0 -12 35 -14 108 -8 20 2 3 21 -19 21 -21 0
-21 1 -19 137 1 44 -2 83 -7 86 -4 2 -23 -2 -40 -11z"/>
<path d="M943 3412 c-38 -18 -44 -35 -10 -27 22 6 23 5 23 -79 1 -84 1 -86
-23 -86 -14 0 -21 -4 -18 -10 3 -5 28 -10 56 -10 27 0 49 5 49 10 0 6 -9 10
-20 10 -18 0 -20 8 -22 104 l-3 103 -32 -15z"/>
<path d="M1145 3373 c-62 -62 -41 -218 29 -218 72 0 99 146 40 210 -27 29 -46
31 -69 8z m59 -29 c4 -11 -37 -78 -70 -113 -2 -2 -4 16 -4 41 0 71 54 124 74
72z m15 -113 c-9 -42 -30 -64 -52 -55 -30 11 -19 46 33 107 14 16 15 16 21 0
3 -10 2 -33 -2 -52z"/>
<path d="M1313 3298 c-28 -14 -30 -32 -3 -23 19 6 20 2 20 -74 0 -75 -2 -81
-21 -81 -11 0 -18 -4 -15 -9 8 -12 96 -13 96 -1 0 6 -8 10 -18 10 -17 0 -19 8
-17 83 2 112 0 115 -42 95z"/>
</g>
</svg>
